%TF.GenerationSoftware,KiCad,Pcbnew,(5.1.6-0)*%
%TF.CreationDate,2023-05-05T19:20:00-07:00*%
%TF.ProjectId,LM1875x2_SMD_1206,4c4d3138-3735-4783-925f-534d445f3132,rev?*%
%TF.SameCoordinates,Original*%
%TF.FileFunction,Copper,L2,Bot*%
%TF.FilePolarity,Positive*%
%FSLAX46Y46*%
G04 Gerber Fmt 4.6, Leading zero omitted, Abs format (unit mm)*
G04 Created by KiCad (PCBNEW (5.1.6-0)) date 2023-05-05 19:20:00*
%MOMM*%
%LPD*%
G01*
G04 APERTURE LIST*
%TA.AperFunction,ComponentPad*%
%ADD10C,1.600000*%
%TD*%
%TA.AperFunction,ComponentPad*%
%ADD11C,2.800000*%
%TD*%
%TA.AperFunction,ComponentPad*%
%ADD12C,0.800000*%
%TD*%
%TA.AperFunction,ComponentPad*%
%ADD13C,7.000000*%
%TD*%
%TA.AperFunction,ComponentPad*%
%ADD14C,2.500000*%
%TD*%
%TA.AperFunction,ComponentPad*%
%ADD15O,1.800000X1.800000*%
%TD*%
%TA.AperFunction,ComponentPad*%
%ADD16R,1.800000X1.800000*%
%TD*%
%TA.AperFunction,ComponentPad*%
%ADD17O,2.800000X2.800000*%
%TD*%
%TA.AperFunction,ComponentPad*%
%ADD18C,2.600000*%
%TD*%
%TA.AperFunction,ComponentPad*%
%ADD19C,2.000000*%
%TD*%
%TA.AperFunction,ComponentPad*%
%ADD20C,2.400000*%
%TD*%
%TA.AperFunction,ComponentPad*%
%ADD21R,2.400000X2.400000*%
%TD*%
%TA.AperFunction,ViaPad*%
%ADD22C,0.800000*%
%TD*%
%TA.AperFunction,ViaPad*%
%ADD23C,0.700000*%
%TD*%
%TA.AperFunction,Conductor*%
%ADD24C,0.300000*%
%TD*%
%TA.AperFunction,Conductor*%
%ADD25C,3.000000*%
%TD*%
G04 APERTURE END LIST*
D10*
%TO.P,C9,2*%
%TO.N,GND*%
X143000000Y-72250000D03*
%TO.P,C9,1*%
%TO.N,Net-(C9-Pad1)*%
X143000000Y-67250000D03*
%TD*%
D11*
%TO.P,J8,1*%
%TO.N,GND*%
X149500000Y-84960000D03*
X149500000Y-90040000D03*
%TD*%
%TO.P,J7,1*%
%TO.N,SPK*%
X130250000Y-84960000D03*
X130250000Y-90040000D03*
%TD*%
%TO.P,J6,1*%
%TO.N,VEE*%
X143250000Y-84960000D03*
X143250000Y-90040000D03*
%TD*%
%TO.P,J5,1*%
%TO.N,GND*%
X136750000Y-84960000D03*
X136750000Y-90040000D03*
%TD*%
%TO.P,J4,1*%
%TO.N,VCC*%
X154750000Y-84960000D03*
X154750000Y-90040000D03*
%TD*%
D12*
%TO.P,H4,1*%
%TO.N,N/C*%
X163106155Y-86893845D03*
X161250000Y-86125000D03*
X159393845Y-86893845D03*
X158625000Y-88750000D03*
X159393845Y-90606155D03*
X161250000Y-91375000D03*
X163106155Y-90606155D03*
X163875000Y-88750000D03*
D13*
X161250000Y-88750000D03*
%TD*%
D12*
%TO.P,H3,1*%
%TO.N,N/C*%
X163106155Y-51893845D03*
X161250000Y-51125000D03*
X159393845Y-51893845D03*
X158625000Y-53750000D03*
X159393845Y-55606155D03*
X161250000Y-56375000D03*
X163106155Y-55606155D03*
X163875000Y-53750000D03*
D13*
X161250000Y-53750000D03*
%TD*%
D12*
%TO.P,H2,1*%
%TO.N,N/C*%
X88106155Y-51893845D03*
X86250000Y-51125000D03*
X84393845Y-51893845D03*
X83625000Y-53750000D03*
X84393845Y-55606155D03*
X86250000Y-56375000D03*
X88106155Y-55606155D03*
X88875000Y-53750000D03*
D13*
X86250000Y-53750000D03*
%TD*%
D12*
%TO.P,H1,1*%
%TO.N,N/C*%
X88106155Y-86893845D03*
X86250000Y-86125000D03*
X84393845Y-86893845D03*
X83625000Y-88750000D03*
X84393845Y-90606155D03*
X86250000Y-91375000D03*
X88106155Y-90606155D03*
X88875000Y-88750000D03*
D13*
X86250000Y-88750000D03*
%TD*%
D14*
%TO.P,L1,2*%
%TO.N,SPK*%
X126100000Y-82560000D03*
%TO.P,L1,1*%
%TO.N,/OUT*%
X113400000Y-74940000D03*
%TD*%
D15*
%TO.P,U2,5*%
%TO.N,VCC*%
X124300000Y-55250000D03*
%TO.P,U2,4*%
%TO.N,Net-(R10-Pad2)*%
X122600000Y-51550000D03*
%TO.P,U2,3*%
%TO.N,VEE*%
X120900000Y-55250000D03*
%TO.P,U2,2*%
%TO.N,Net-(R4-Pad1)*%
X119200000Y-51550000D03*
D16*
%TO.P,U2,1*%
%TO.N,Net-(R3-Pad1)*%
X117500000Y-55250000D03*
%TD*%
D15*
%TO.P,U1,5*%
%TO.N,VCC*%
X101800000Y-55250000D03*
%TO.P,U1,4*%
%TO.N,Net-(R6-Pad1)*%
X100100000Y-51550000D03*
%TO.P,U1,3*%
%TO.N,VEE*%
X98400000Y-55250000D03*
%TO.P,U1,2*%
%TO.N,Net-(R2-Pad1)*%
X96700000Y-51550000D03*
D16*
%TO.P,U1,1*%
%TO.N,Net-(R1-Pad1)*%
X95000000Y-55250000D03*
%TD*%
D17*
%TO.P,R12,2*%
%TO.N,/OUT*%
X104930000Y-87500000D03*
D11*
%TO.P,R12,1*%
%TO.N,SPK*%
X125250000Y-87500000D03*
%TD*%
D17*
%TO.P,R11,2*%
%TO.N,/OUT*%
X138000000Y-80820000D03*
D11*
%TO.P,R11,1*%
%TO.N,Net-(C9-Pad1)*%
X138000000Y-60500000D03*
%TD*%
D17*
%TO.P,R10,2*%
%TO.N,Net-(R10-Pad2)*%
X131250000Y-60430000D03*
D11*
%TO.P,R10,1*%
%TO.N,/OUT*%
X131250000Y-80750000D03*
%TD*%
D17*
%TO.P,R9,2*%
%TO.N,Net-(R6-Pad1)*%
X108750000Y-60430000D03*
D11*
%TO.P,R9,1*%
%TO.N,/OUT*%
X108750000Y-80750000D03*
%TD*%
D18*
%TO.P,J3,3*%
%TO.N,VCC*%
X154000000Y-87500000D03*
%TO.P,J3,2*%
%TO.N,GND*%
X149000000Y-87500000D03*
%TO.P,J3,1*%
%TO.N,VEE*%
X144000000Y-87500000D03*
%TD*%
%TO.P,J2,2*%
%TO.N,GND*%
X136000000Y-87500000D03*
%TO.P,J2,1*%
%TO.N,SPK*%
X131000000Y-87500000D03*
%TD*%
D19*
%TO.P,J1,3*%
%TO.N,Net-(C1-Pad2)*%
X100250000Y-87500000D03*
%TO.P,J1,2*%
%TO.N,Net-(C2-Pad2)*%
X96750000Y-87500000D03*
%TO.P,J1,1*%
%TO.N,GND*%
X93250000Y-87500000D03*
%TD*%
D20*
%TO.P,C4,2*%
%TO.N,VEE*%
X149500000Y-72000000D03*
D21*
%TO.P,C4,1*%
%TO.N,GND*%
X157000000Y-72000000D03*
%TD*%
D20*
%TO.P,C3,2*%
%TO.N,GND*%
X144000000Y-56000000D03*
D21*
%TO.P,C3,1*%
%TO.N,VCC*%
X151500000Y-56000000D03*
%TD*%
D10*
%TO.P,C2,2*%
%TO.N,Net-(C2-Pad2)*%
X89250000Y-77500000D03*
%TO.P,C2,1*%
%TO.N,Net-(C2-Pad1)*%
X89250000Y-72500000D03*
%TD*%
%TO.P,C1,2*%
%TO.N,Net-(C1-Pad2)*%
X100000000Y-77500000D03*
%TO.P,C1,1*%
%TO.N,Net-(C1-Pad1)*%
X100000000Y-72500000D03*
%TD*%
D22*
%TO.N,GND*%
X131500000Y-54000000D03*
X109250000Y-54000000D03*
X112925000Y-65150000D03*
X90425000Y-65150000D03*
D23*
X94000000Y-60750000D03*
X99000000Y-60750000D03*
X116500000Y-60750000D03*
X121500000Y-60750000D03*
X84151191Y-60172500D03*
X84151191Y-64172500D03*
X84151191Y-68172500D03*
X84151191Y-72172500D03*
X84151191Y-76172500D03*
X84151191Y-80172500D03*
X84151191Y-84172500D03*
X86151191Y-58750000D03*
X86151191Y-62172500D03*
X86151191Y-66172500D03*
X86151191Y-70172500D03*
X86151191Y-74172500D03*
X86151191Y-78172500D03*
X86151191Y-82172500D03*
X88151191Y-60172500D03*
X88151191Y-64172500D03*
X88151191Y-68172500D03*
X88151191Y-80172500D03*
X88151191Y-84172500D03*
X89151191Y-75172500D03*
X90750000Y-58750000D03*
X90151191Y-62172500D03*
X90151191Y-70172500D03*
X90151191Y-82172500D03*
X91151191Y-49172500D03*
X91151191Y-67172500D03*
X91151191Y-79172500D03*
X91151191Y-85172500D03*
X91151191Y-89172500D03*
X92151191Y-52172500D03*
X92151191Y-56172500D03*
X92151191Y-60172500D03*
X92151191Y-74172500D03*
X93151191Y-69172500D03*
X93151191Y-81172500D03*
X93151191Y-91172500D03*
X94151191Y-50172500D03*
X94151191Y-58172500D03*
X94151191Y-76172500D03*
X94151191Y-84172500D03*
X96151191Y-74172500D03*
X96151191Y-79172500D03*
X96151191Y-90172500D03*
X97151191Y-49172500D03*
X97151191Y-67172500D03*
X97151191Y-71172500D03*
X97151191Y-82172500D03*
X98151191Y-76172500D03*
X99151191Y-69172500D03*
X99151191Y-80172500D03*
X99151191Y-84172500D03*
X99151191Y-91172500D03*
X101151191Y-75172500D03*
X101151191Y-82172500D03*
X102151191Y-68172500D03*
X102151191Y-72172500D03*
X102151191Y-78172500D03*
X103151191Y-61172500D03*
X103151191Y-91172500D03*
X104151191Y-70172500D03*
X104151191Y-74172500D03*
X105151191Y-77172500D03*
X106151191Y-65172500D03*
X106151191Y-72172500D03*
X107151191Y-68172500D03*
X107151191Y-75172500D03*
X107151191Y-91172500D03*
X108151191Y-63172500D03*
X108151191Y-87172500D03*
X109151191Y-70172500D03*
X110151191Y-65172500D03*
X110151191Y-73172500D03*
X110151191Y-85172500D03*
X110151191Y-89172500D03*
X111151191Y-62172500D03*
X111151191Y-68172500D03*
X112151191Y-71172500D03*
X112151191Y-83172500D03*
X112151191Y-87172500D03*
X112151191Y-91172500D03*
X113151191Y-60172500D03*
X114151191Y-69172500D03*
X114151191Y-81172500D03*
X114151191Y-85172500D03*
X114151191Y-89172500D03*
X116151191Y-71172500D03*
X116151191Y-83172500D03*
X116151191Y-87172500D03*
X116151191Y-91172500D03*
X117151191Y-68172500D03*
X118151191Y-73172500D03*
X118151191Y-81172500D03*
X118151191Y-85172500D03*
X118151191Y-89172500D03*
X119151191Y-70172500D03*
X120151191Y-67172500D03*
X120151191Y-83172500D03*
X120151191Y-87172500D03*
X120151191Y-91172500D03*
X121151191Y-72172500D03*
X122151191Y-69172500D03*
X122151191Y-81172500D03*
X123151191Y-74172500D03*
X124151191Y-67172500D03*
X124151191Y-71172500D03*
X124151191Y-91172500D03*
X125151191Y-61172500D03*
X126151191Y-69172500D03*
X126151191Y-73172500D03*
X127151191Y-66172500D03*
X128151191Y-71172500D03*
X129151191Y-64172500D03*
X129151191Y-68172500D03*
X129151191Y-74172500D03*
X131151191Y-66172500D03*
X131151191Y-70172500D03*
X132151191Y-63172500D03*
X132151191Y-73172500D03*
X133151191Y-68172500D03*
X133151191Y-76172500D03*
X134151191Y-60172500D03*
X134151191Y-65172500D03*
X134151191Y-71172500D03*
X134151191Y-84172500D03*
X134151191Y-90172500D03*
X135151191Y-74172500D03*
X136151191Y-63172500D03*
X136151191Y-67172500D03*
X136151191Y-77172500D03*
X137151191Y-70172500D03*
X138151191Y-73172500D03*
X139151191Y-64172500D03*
X139151191Y-76172500D03*
X139151191Y-87172500D03*
X140151191Y-69172500D03*
X141151191Y-72172500D03*
X142151191Y-65172500D03*
X142151191Y-75172500D03*
X145151191Y-68172500D03*
X145151191Y-72172500D03*
X146151191Y-58172500D03*
X148151191Y-60172500D03*
X148151191Y-81172500D03*
X150151191Y-49172500D03*
X150151191Y-62172500D03*
X150151191Y-79172500D03*
X152151191Y-51172500D03*
X152151191Y-64172500D03*
X152151191Y-77172500D03*
X153151191Y-67172500D03*
X153151191Y-71172500D03*
X154151191Y-49172500D03*
X154151191Y-53172500D03*
X154151191Y-74172500D03*
X155151191Y-69172500D03*
X156151191Y-51172500D03*
X156151191Y-55172500D03*
X158151191Y-84172500D03*
X160151191Y-59172500D03*
X160151191Y-82172500D03*
X163000000Y-61500000D03*
X162151191Y-80172500D03*
X163151191Y-58500000D03*
X163151191Y-83172500D03*
%TO.N,Net-(R1-Pad1)*%
X95000000Y-60750000D03*
%TO.N,Net-(R2-Pad1)*%
X98000000Y-60750000D03*
%TO.N,Net-(R3-Pad1)*%
X117500000Y-60750000D03*
%TO.N,Net-(R4-Pad1)*%
X120500000Y-60750000D03*
%TD*%
D24*
%TO.N,Net-(R1-Pad1)*%
X95000000Y-55250000D02*
X95000000Y-60750000D01*
%TO.N,Net-(R2-Pad1)*%
X96700000Y-59450000D02*
X98000000Y-60750000D01*
X96700000Y-51550000D02*
X96700000Y-59450000D01*
%TO.N,Net-(R3-Pad1)*%
X117500000Y-60750000D02*
X117500000Y-55250000D01*
%TO.N,Net-(R4-Pad1)*%
X119200000Y-59450000D02*
X120500000Y-60750000D01*
X119200000Y-51550000D02*
X119200000Y-59450000D01*
D25*
%TO.N,Net-(R6-Pad1)*%
X108750000Y-58203998D02*
X108750000Y-60430000D01*
X102096002Y-51550000D02*
X108750000Y-58203998D01*
X100100000Y-51550000D02*
X102096002Y-51550000D01*
%TO.N,Net-(R10-Pad2)*%
X131250000Y-58203998D02*
X131250000Y-60430000D01*
X124596002Y-51550000D02*
X131250000Y-58203998D01*
X122600000Y-51550000D02*
X124596002Y-51550000D01*
%TD*%
D24*
%TO.N,GND*%
G36*
X157100000Y-57250000D02*
G01*
X157102882Y-57279264D01*
X157111418Y-57307403D01*
X157125280Y-57333336D01*
X157143934Y-57356066D01*
X157643934Y-57856066D01*
X157666664Y-57874720D01*
X157692597Y-57888582D01*
X157720736Y-57897118D01*
X157750000Y-57900000D01*
X164525001Y-57900000D01*
X164525000Y-86541573D01*
X164318165Y-86232022D01*
X163767978Y-85681835D01*
X163121026Y-85249556D01*
X162402172Y-84951797D01*
X161639041Y-84800000D01*
X160860959Y-84800000D01*
X160097828Y-84951797D01*
X159378974Y-85249556D01*
X158732022Y-85681835D01*
X158181835Y-86232022D01*
X157749556Y-86878974D01*
X157451797Y-87597828D01*
X157300000Y-88360959D01*
X157300000Y-89139041D01*
X157451797Y-89902172D01*
X157749556Y-90621026D01*
X158181835Y-91267978D01*
X158732022Y-91818165D01*
X159041573Y-92025000D01*
X88458427Y-92025000D01*
X88767978Y-91818165D01*
X89318165Y-91267978D01*
X89750444Y-90621026D01*
X90048203Y-89902172D01*
X90200000Y-89139041D01*
X90200000Y-88485414D01*
X92335297Y-88485414D01*
X92434543Y-88707446D01*
X92685773Y-88843333D01*
X92958685Y-88927597D01*
X93242793Y-88956999D01*
X93527178Y-88930410D01*
X93800911Y-88848850D01*
X94053473Y-88715455D01*
X94065457Y-88707446D01*
X94164703Y-88485414D01*
X93250000Y-87570711D01*
X92335297Y-88485414D01*
X90200000Y-88485414D01*
X90200000Y-88360959D01*
X90048203Y-87597828D01*
X90004697Y-87492793D01*
X91793001Y-87492793D01*
X91819590Y-87777178D01*
X91901150Y-88050911D01*
X92034545Y-88303473D01*
X92042554Y-88315457D01*
X92264586Y-88414703D01*
X93179289Y-87500000D01*
X93320711Y-87500000D01*
X94235414Y-88414703D01*
X94457446Y-88315457D01*
X94593333Y-88064227D01*
X94677597Y-87791315D01*
X94706999Y-87507207D01*
X94692973Y-87357187D01*
X95300000Y-87357187D01*
X95300000Y-87642813D01*
X95355723Y-87922949D01*
X95465027Y-88186833D01*
X95623711Y-88424321D01*
X95825679Y-88626289D01*
X96063167Y-88784973D01*
X96327051Y-88894277D01*
X96607187Y-88950000D01*
X96892813Y-88950000D01*
X97172949Y-88894277D01*
X97436833Y-88784973D01*
X97674321Y-88626289D01*
X97876289Y-88424321D01*
X98034973Y-88186833D01*
X98144277Y-87922949D01*
X98200000Y-87642813D01*
X98200000Y-87357187D01*
X98800000Y-87357187D01*
X98800000Y-87642813D01*
X98855723Y-87922949D01*
X98965027Y-88186833D01*
X99123711Y-88424321D01*
X99325679Y-88626289D01*
X99563167Y-88784973D01*
X99827051Y-88894277D01*
X100107187Y-88950000D01*
X100392813Y-88950000D01*
X100672949Y-88894277D01*
X100936833Y-88784973D01*
X101174321Y-88626289D01*
X101376289Y-88424321D01*
X101534973Y-88186833D01*
X101644277Y-87922949D01*
X101700000Y-87642813D01*
X101700000Y-87357187D01*
X101692164Y-87317791D01*
X103080000Y-87317791D01*
X103080000Y-87682209D01*
X103151095Y-88039625D01*
X103290552Y-88376303D01*
X103493011Y-88679306D01*
X103750694Y-88936989D01*
X104053697Y-89139448D01*
X104390375Y-89278905D01*
X104747791Y-89350000D01*
X105112209Y-89350000D01*
X105469625Y-89278905D01*
X105806303Y-89139448D01*
X106109306Y-88936989D01*
X106366989Y-88679306D01*
X106569448Y-88376303D01*
X106708905Y-88039625D01*
X106780000Y-87682209D01*
X106780000Y-87317791D01*
X123400000Y-87317791D01*
X123400000Y-87682209D01*
X123471095Y-88039625D01*
X123610552Y-88376303D01*
X123813011Y-88679306D01*
X124070694Y-88936989D01*
X124373697Y-89139448D01*
X124710375Y-89278905D01*
X125067791Y-89350000D01*
X125432209Y-89350000D01*
X125789625Y-89278905D01*
X126126303Y-89139448D01*
X126429306Y-88936989D01*
X126686989Y-88679306D01*
X126889448Y-88376303D01*
X127028905Y-88039625D01*
X127100000Y-87682209D01*
X127100000Y-87317791D01*
X127028905Y-86960375D01*
X126889448Y-86623697D01*
X126686989Y-86320694D01*
X126429306Y-86063011D01*
X126126303Y-85860552D01*
X125789625Y-85721095D01*
X125432209Y-85650000D01*
X125067791Y-85650000D01*
X124710375Y-85721095D01*
X124373697Y-85860552D01*
X124070694Y-86063011D01*
X123813011Y-86320694D01*
X123610552Y-86623697D01*
X123471095Y-86960375D01*
X123400000Y-87317791D01*
X106780000Y-87317791D01*
X106708905Y-86960375D01*
X106569448Y-86623697D01*
X106366989Y-86320694D01*
X106109306Y-86063011D01*
X105806303Y-85860552D01*
X105469625Y-85721095D01*
X105112209Y-85650000D01*
X104747791Y-85650000D01*
X104390375Y-85721095D01*
X104053697Y-85860552D01*
X103750694Y-86063011D01*
X103493011Y-86320694D01*
X103290552Y-86623697D01*
X103151095Y-86960375D01*
X103080000Y-87317791D01*
X101692164Y-87317791D01*
X101644277Y-87077051D01*
X101534973Y-86813167D01*
X101376289Y-86575679D01*
X101174321Y-86373711D01*
X100936833Y-86215027D01*
X100672949Y-86105723D01*
X100392813Y-86050000D01*
X100107187Y-86050000D01*
X99827051Y-86105723D01*
X99563167Y-86215027D01*
X99325679Y-86373711D01*
X99123711Y-86575679D01*
X98965027Y-86813167D01*
X98855723Y-87077051D01*
X98800000Y-87357187D01*
X98200000Y-87357187D01*
X98144277Y-87077051D01*
X98034973Y-86813167D01*
X97876289Y-86575679D01*
X97674321Y-86373711D01*
X97436833Y-86215027D01*
X97172949Y-86105723D01*
X96892813Y-86050000D01*
X96607187Y-86050000D01*
X96327051Y-86105723D01*
X96063167Y-86215027D01*
X95825679Y-86373711D01*
X95623711Y-86575679D01*
X95465027Y-86813167D01*
X95355723Y-87077051D01*
X95300000Y-87357187D01*
X94692973Y-87357187D01*
X94680410Y-87222822D01*
X94598850Y-86949089D01*
X94465455Y-86696527D01*
X94457446Y-86684543D01*
X94235414Y-86585297D01*
X93320711Y-87500000D01*
X93179289Y-87500000D01*
X92264586Y-86585297D01*
X92042554Y-86684543D01*
X91906667Y-86935773D01*
X91822403Y-87208685D01*
X91793001Y-87492793D01*
X90004697Y-87492793D01*
X89750444Y-86878974D01*
X89506969Y-86514586D01*
X92335297Y-86514586D01*
X93250000Y-87429289D01*
X94164703Y-86514586D01*
X94065457Y-86292554D01*
X93814227Y-86156667D01*
X93541315Y-86072403D01*
X93257207Y-86043001D01*
X92972822Y-86069590D01*
X92699089Y-86151150D01*
X92446527Y-86284545D01*
X92434543Y-86292554D01*
X92335297Y-86514586D01*
X89506969Y-86514586D01*
X89318165Y-86232022D01*
X88767978Y-85681835D01*
X88121026Y-85249556D01*
X87402172Y-84951797D01*
X86639041Y-84800000D01*
X85860959Y-84800000D01*
X85097828Y-84951797D01*
X84378974Y-85249556D01*
X83732022Y-85681835D01*
X83181835Y-86232022D01*
X82975000Y-86541573D01*
X82975000Y-84777791D01*
X128400000Y-84777791D01*
X128400000Y-85142209D01*
X128471095Y-85499625D01*
X128610552Y-85836303D01*
X128813011Y-86139306D01*
X129070694Y-86396989D01*
X129373697Y-86599448D01*
X129470289Y-86639458D01*
X129449170Y-86671064D01*
X129317251Y-86989544D01*
X129250000Y-87327640D01*
X129250000Y-87672360D01*
X129317251Y-88010456D01*
X129449170Y-88328936D01*
X129470289Y-88360542D01*
X129373697Y-88400552D01*
X129070694Y-88603011D01*
X128813011Y-88860694D01*
X128610552Y-89163697D01*
X128471095Y-89500375D01*
X128400000Y-89857791D01*
X128400000Y-90222209D01*
X128471095Y-90579625D01*
X128610552Y-90916303D01*
X128813011Y-91219306D01*
X129070694Y-91476989D01*
X129373697Y-91679448D01*
X129710375Y-91818905D01*
X130067791Y-91890000D01*
X130432209Y-91890000D01*
X130789625Y-91818905D01*
X131126303Y-91679448D01*
X131429306Y-91476989D01*
X131596519Y-91309776D01*
X135550934Y-91309776D01*
X135698182Y-91572768D01*
X136017420Y-91748516D01*
X136364811Y-91858606D01*
X136727005Y-91898808D01*
X137090082Y-91867578D01*
X137440090Y-91766115D01*
X137763579Y-91598318D01*
X137801818Y-91572768D01*
X137949066Y-91309776D01*
X136750000Y-90110711D01*
X135550934Y-91309776D01*
X131596519Y-91309776D01*
X131686989Y-91219306D01*
X131889448Y-90916303D01*
X132028905Y-90579625D01*
X132100000Y-90222209D01*
X132100000Y-89857791D01*
X132028905Y-89500375D01*
X131889448Y-89163697D01*
X131817264Y-89055665D01*
X131828936Y-89050830D01*
X132115560Y-88859314D01*
X132359314Y-88615560D01*
X132550830Y-88328936D01*
X132682749Y-88010456D01*
X132750000Y-87672360D01*
X132750000Y-87480952D01*
X134241636Y-87480952D01*
X134271707Y-87824358D01*
X134368195Y-88155299D01*
X134527392Y-88461057D01*
X134548556Y-88492733D01*
X134801307Y-88627982D01*
X135929289Y-87500000D01*
X134801307Y-86372018D01*
X134548556Y-86507267D01*
X134382773Y-86809505D01*
X134279138Y-87138278D01*
X134241636Y-87480952D01*
X132750000Y-87480952D01*
X132750000Y-87327640D01*
X132682749Y-86989544D01*
X132550830Y-86671064D01*
X132359314Y-86384440D01*
X132276181Y-86301307D01*
X134872018Y-86301307D01*
X136000000Y-87429289D01*
X136014142Y-87415147D01*
X136084853Y-87485858D01*
X136070711Y-87500000D01*
X136084853Y-87514142D01*
X136014142Y-87584853D01*
X136000000Y-87570711D01*
X134872018Y-88698693D01*
X135007267Y-88951444D01*
X135184068Y-89048423D01*
X135041484Y-89307420D01*
X134931394Y-89654811D01*
X134891192Y-90017005D01*
X134922422Y-90380082D01*
X135023885Y-90730090D01*
X135191682Y-91053579D01*
X135217232Y-91091818D01*
X135480224Y-91239066D01*
X136679289Y-90040000D01*
X136820711Y-90040000D01*
X138019776Y-91239066D01*
X138282768Y-91091818D01*
X138458516Y-90772580D01*
X138568606Y-90425189D01*
X138608808Y-90062995D01*
X138577578Y-89699918D01*
X138476115Y-89349910D01*
X138308318Y-89026421D01*
X138282768Y-88988182D01*
X138019776Y-88840934D01*
X136820711Y-90040000D01*
X136679289Y-90040000D01*
X136665147Y-90025858D01*
X136735858Y-89955147D01*
X136750000Y-89969289D01*
X137949066Y-88770224D01*
X137801818Y-88507232D01*
X137526599Y-88355718D01*
X137617227Y-88190495D01*
X137720862Y-87861722D01*
X137758364Y-87519048D01*
X137728293Y-87175642D01*
X137631805Y-86844701D01*
X137526026Y-86641539D01*
X137763579Y-86518318D01*
X137801818Y-86492768D01*
X137949066Y-86229776D01*
X136750000Y-85030711D01*
X136735858Y-85044853D01*
X136665147Y-84974142D01*
X136679289Y-84960000D01*
X136820711Y-84960000D01*
X138019776Y-86159066D01*
X138282768Y-86011818D01*
X138458516Y-85692580D01*
X138568606Y-85345189D01*
X138608808Y-84982995D01*
X138591158Y-84777791D01*
X141400000Y-84777791D01*
X141400000Y-85142209D01*
X141471095Y-85499625D01*
X141610552Y-85836303D01*
X141813011Y-86139306D01*
X142070694Y-86396989D01*
X142373697Y-86599448D01*
X142470289Y-86639458D01*
X142449170Y-86671064D01*
X142317251Y-86989544D01*
X142250000Y-87327640D01*
X142250000Y-87672360D01*
X142317251Y-88010456D01*
X142449170Y-88328936D01*
X142470289Y-88360542D01*
X142373697Y-88400552D01*
X142070694Y-88603011D01*
X141813011Y-88860694D01*
X141610552Y-89163697D01*
X141471095Y-89500375D01*
X141400000Y-89857791D01*
X141400000Y-90222209D01*
X141471095Y-90579625D01*
X141610552Y-90916303D01*
X141813011Y-91219306D01*
X142070694Y-91476989D01*
X142373697Y-91679448D01*
X142710375Y-91818905D01*
X143067791Y-91890000D01*
X143432209Y-91890000D01*
X143789625Y-91818905D01*
X144126303Y-91679448D01*
X144429306Y-91476989D01*
X144596519Y-91309776D01*
X148300934Y-91309776D01*
X148448182Y-91572768D01*
X148767420Y-91748516D01*
X149114811Y-91858606D01*
X149477005Y-91898808D01*
X149840082Y-91867578D01*
X150190090Y-91766115D01*
X150513579Y-91598318D01*
X150551818Y-91572768D01*
X150699066Y-91309776D01*
X149500000Y-90110711D01*
X148300934Y-91309776D01*
X144596519Y-91309776D01*
X144686989Y-91219306D01*
X144889448Y-90916303D01*
X145028905Y-90579625D01*
X145100000Y-90222209D01*
X145100000Y-89857791D01*
X145028905Y-89500375D01*
X144889448Y-89163697D01*
X144817264Y-89055665D01*
X144828936Y-89050830D01*
X145115560Y-88859314D01*
X145359314Y-88615560D01*
X145550830Y-88328936D01*
X145682749Y-88010456D01*
X145750000Y-87672360D01*
X145750000Y-87480952D01*
X147241636Y-87480952D01*
X147271707Y-87824358D01*
X147368195Y-88155299D01*
X147527392Y-88461057D01*
X147548556Y-88492733D01*
X147801307Y-88627982D01*
X148929289Y-87500000D01*
X147801307Y-86372018D01*
X147548556Y-86507267D01*
X147382773Y-86809505D01*
X147279138Y-87138278D01*
X147241636Y-87480952D01*
X145750000Y-87480952D01*
X145750000Y-87327640D01*
X145682749Y-86989544D01*
X145550830Y-86671064D01*
X145359314Y-86384440D01*
X145115560Y-86140686D01*
X144828936Y-85949170D01*
X144817264Y-85944335D01*
X144889448Y-85836303D01*
X145028905Y-85499625D01*
X145100000Y-85142209D01*
X145100000Y-84937005D01*
X147641192Y-84937005D01*
X147672422Y-85300082D01*
X147773885Y-85650090D01*
X147941682Y-85973579D01*
X147967232Y-86011818D01*
X148018930Y-86040763D01*
X148007267Y-86048556D01*
X147872018Y-86301307D01*
X149000000Y-87429289D01*
X149014142Y-87415147D01*
X149084853Y-87485858D01*
X149070711Y-87500000D01*
X149084853Y-87514142D01*
X149014142Y-87584853D01*
X149000000Y-87570711D01*
X147872018Y-88698693D01*
X148007267Y-88951444D01*
X148020189Y-88958532D01*
X147967232Y-88988182D01*
X147791484Y-89307420D01*
X147681394Y-89654811D01*
X147641192Y-90017005D01*
X147672422Y-90380082D01*
X147773885Y-90730090D01*
X147941682Y-91053579D01*
X147967232Y-91091818D01*
X148230224Y-91239066D01*
X149429289Y-90040000D01*
X149570711Y-90040000D01*
X150769776Y-91239066D01*
X151032768Y-91091818D01*
X151208516Y-90772580D01*
X151318606Y-90425189D01*
X151358808Y-90062995D01*
X151327578Y-89699918D01*
X151226115Y-89349910D01*
X151058318Y-89026421D01*
X151032768Y-88988182D01*
X150769776Y-88840934D01*
X149570711Y-90040000D01*
X149429289Y-90040000D01*
X149415147Y-90025858D01*
X149485858Y-89955147D01*
X149500000Y-89969289D01*
X150699066Y-88770224D01*
X150551818Y-88507232D01*
X150468616Y-88461427D01*
X150617227Y-88190495D01*
X150720862Y-87861722D01*
X150758364Y-87519048D01*
X150741603Y-87327640D01*
X152250000Y-87327640D01*
X152250000Y-87672360D01*
X152317251Y-88010456D01*
X152449170Y-88328936D01*
X152640686Y-88615560D01*
X152884440Y-88859314D01*
X153171064Y-89050830D01*
X153182736Y-89055665D01*
X153110552Y-89163697D01*
X152971095Y-89500375D01*
X152900000Y-89857791D01*
X152900000Y-90222209D01*
X152971095Y-90579625D01*
X153110552Y-90916303D01*
X153313011Y-91219306D01*
X153570694Y-91476989D01*
X153873697Y-91679448D01*
X154210375Y-91818905D01*
X154567791Y-91890000D01*
X154932209Y-91890000D01*
X155289625Y-91818905D01*
X155626303Y-91679448D01*
X155929306Y-91476989D01*
X156186989Y-91219306D01*
X156389448Y-90916303D01*
X156528905Y-90579625D01*
X156600000Y-90222209D01*
X156600000Y-89857791D01*
X156528905Y-89500375D01*
X156389448Y-89163697D01*
X156186989Y-88860694D01*
X155929306Y-88603011D01*
X155626303Y-88400552D01*
X155529711Y-88360542D01*
X155550830Y-88328936D01*
X155682749Y-88010456D01*
X155750000Y-87672360D01*
X155750000Y-87327640D01*
X155682749Y-86989544D01*
X155550830Y-86671064D01*
X155529711Y-86639458D01*
X155626303Y-86599448D01*
X155929306Y-86396989D01*
X156186989Y-86139306D01*
X156389448Y-85836303D01*
X156528905Y-85499625D01*
X156600000Y-85142209D01*
X156600000Y-84777791D01*
X156528905Y-84420375D01*
X156389448Y-84083697D01*
X156186989Y-83780694D01*
X155929306Y-83523011D01*
X155626303Y-83320552D01*
X155289625Y-83181095D01*
X154932209Y-83110000D01*
X154567791Y-83110000D01*
X154210375Y-83181095D01*
X153873697Y-83320552D01*
X153570694Y-83523011D01*
X153313011Y-83780694D01*
X153110552Y-84083697D01*
X152971095Y-84420375D01*
X152900000Y-84777791D01*
X152900000Y-85142209D01*
X152971095Y-85499625D01*
X153110552Y-85836303D01*
X153182736Y-85944335D01*
X153171064Y-85949170D01*
X152884440Y-86140686D01*
X152640686Y-86384440D01*
X152449170Y-86671064D01*
X152317251Y-86989544D01*
X152250000Y-87327640D01*
X150741603Y-87327640D01*
X150728293Y-87175642D01*
X150631805Y-86844701D01*
X150472865Y-86539437D01*
X150513579Y-86518318D01*
X150551818Y-86492768D01*
X150699066Y-86229776D01*
X149500000Y-85030711D01*
X149485858Y-85044853D01*
X149415147Y-84974142D01*
X149429289Y-84960000D01*
X149570711Y-84960000D01*
X150769776Y-86159066D01*
X151032768Y-86011818D01*
X151208516Y-85692580D01*
X151318606Y-85345189D01*
X151358808Y-84982995D01*
X151327578Y-84619918D01*
X151226115Y-84269910D01*
X151058318Y-83946421D01*
X151032768Y-83908182D01*
X150769776Y-83760934D01*
X149570711Y-84960000D01*
X149429289Y-84960000D01*
X148230224Y-83760934D01*
X147967232Y-83908182D01*
X147791484Y-84227420D01*
X147681394Y-84574811D01*
X147641192Y-84937005D01*
X145100000Y-84937005D01*
X145100000Y-84777791D01*
X145028905Y-84420375D01*
X144889448Y-84083697D01*
X144686989Y-83780694D01*
X144596519Y-83690224D01*
X148300934Y-83690224D01*
X149500000Y-84889289D01*
X150699066Y-83690224D01*
X150551818Y-83427232D01*
X150232580Y-83251484D01*
X149885189Y-83141394D01*
X149522995Y-83101192D01*
X149159918Y-83132422D01*
X148809910Y-83233885D01*
X148486421Y-83401682D01*
X148448182Y-83427232D01*
X148300934Y-83690224D01*
X144596519Y-83690224D01*
X144429306Y-83523011D01*
X144126303Y-83320552D01*
X143789625Y-83181095D01*
X143432209Y-83110000D01*
X143067791Y-83110000D01*
X142710375Y-83181095D01*
X142373697Y-83320552D01*
X142070694Y-83523011D01*
X141813011Y-83780694D01*
X141610552Y-84083697D01*
X141471095Y-84420375D01*
X141400000Y-84777791D01*
X138591158Y-84777791D01*
X138577578Y-84619918D01*
X138476115Y-84269910D01*
X138308318Y-83946421D01*
X138282768Y-83908182D01*
X138019776Y-83760934D01*
X136820711Y-84960000D01*
X136679289Y-84960000D01*
X135480224Y-83760934D01*
X135217232Y-83908182D01*
X135041484Y-84227420D01*
X134931394Y-84574811D01*
X134891192Y-84937005D01*
X134922422Y-85300082D01*
X135023885Y-85650090D01*
X135181181Y-85953334D01*
X135038943Y-86027392D01*
X135007267Y-86048556D01*
X134872018Y-86301307D01*
X132276181Y-86301307D01*
X132115560Y-86140686D01*
X131828936Y-85949170D01*
X131817264Y-85944335D01*
X131889448Y-85836303D01*
X132028905Y-85499625D01*
X132100000Y-85142209D01*
X132100000Y-84777791D01*
X132028905Y-84420375D01*
X131889448Y-84083697D01*
X131686989Y-83780694D01*
X131596519Y-83690224D01*
X135550934Y-83690224D01*
X136750000Y-84889289D01*
X137949066Y-83690224D01*
X137801818Y-83427232D01*
X137482580Y-83251484D01*
X137135189Y-83141394D01*
X136772995Y-83101192D01*
X136409918Y-83132422D01*
X136059910Y-83233885D01*
X135736421Y-83401682D01*
X135698182Y-83427232D01*
X135550934Y-83690224D01*
X131596519Y-83690224D01*
X131429306Y-83523011D01*
X131126303Y-83320552D01*
X130789625Y-83181095D01*
X130432209Y-83110000D01*
X130067791Y-83110000D01*
X129710375Y-83181095D01*
X129373697Y-83320552D01*
X129070694Y-83523011D01*
X128813011Y-83780694D01*
X128610552Y-84083697D01*
X128471095Y-84420375D01*
X128400000Y-84777791D01*
X82975000Y-84777791D01*
X82975000Y-80567791D01*
X106900000Y-80567791D01*
X106900000Y-80932209D01*
X106971095Y-81289625D01*
X107110552Y-81626303D01*
X107313011Y-81929306D01*
X107570694Y-82186989D01*
X107873697Y-82389448D01*
X108210375Y-82528905D01*
X108567791Y-82600000D01*
X108932209Y-82600000D01*
X109289625Y-82528905D01*
X109618777Y-82392565D01*
X124400000Y-82392565D01*
X124400000Y-82727435D01*
X124465330Y-83055872D01*
X124593479Y-83365252D01*
X124779523Y-83643687D01*
X125016313Y-83880477D01*
X125294748Y-84066521D01*
X125604128Y-84194670D01*
X125932565Y-84260000D01*
X126267435Y-84260000D01*
X126595872Y-84194670D01*
X126905252Y-84066521D01*
X127183687Y-83880477D01*
X127420477Y-83643687D01*
X127606521Y-83365252D01*
X127734670Y-83055872D01*
X127800000Y-82727435D01*
X127800000Y-82392565D01*
X127734670Y-82064128D01*
X127606521Y-81754748D01*
X127420477Y-81476313D01*
X127183687Y-81239523D01*
X126905252Y-81053479D01*
X126595872Y-80925330D01*
X126267435Y-80860000D01*
X125932565Y-80860000D01*
X125604128Y-80925330D01*
X125294748Y-81053479D01*
X125016313Y-81239523D01*
X124779523Y-81476313D01*
X124593479Y-81754748D01*
X124465330Y-82064128D01*
X124400000Y-82392565D01*
X109618777Y-82392565D01*
X109626303Y-82389448D01*
X109929306Y-82186989D01*
X110186989Y-81929306D01*
X110389448Y-81626303D01*
X110528905Y-81289625D01*
X110600000Y-80932209D01*
X110600000Y-80567791D01*
X129400000Y-80567791D01*
X129400000Y-80932209D01*
X129471095Y-81289625D01*
X129610552Y-81626303D01*
X129813011Y-81929306D01*
X130070694Y-82186989D01*
X130373697Y-82389448D01*
X130710375Y-82528905D01*
X131067791Y-82600000D01*
X131432209Y-82600000D01*
X131789625Y-82528905D01*
X132126303Y-82389448D01*
X132429306Y-82186989D01*
X132686989Y-81929306D01*
X132889448Y-81626303D01*
X133028905Y-81289625D01*
X133100000Y-80932209D01*
X133100000Y-80637791D01*
X136150000Y-80637791D01*
X136150000Y-81002209D01*
X136221095Y-81359625D01*
X136360552Y-81696303D01*
X136563011Y-81999306D01*
X136820694Y-82256989D01*
X137123697Y-82459448D01*
X137460375Y-82598905D01*
X137817791Y-82670000D01*
X138182209Y-82670000D01*
X138539625Y-82598905D01*
X138876303Y-82459448D01*
X139179306Y-82256989D01*
X139436989Y-81999306D01*
X139639448Y-81696303D01*
X139778905Y-81359625D01*
X139850000Y-81002209D01*
X139850000Y-80637791D01*
X139778905Y-80280375D01*
X139639448Y-79943697D01*
X139436989Y-79640694D01*
X139179306Y-79383011D01*
X138876303Y-79180552D01*
X138539625Y-79041095D01*
X138182209Y-78970000D01*
X137817791Y-78970000D01*
X137460375Y-79041095D01*
X137123697Y-79180552D01*
X136820694Y-79383011D01*
X136563011Y-79640694D01*
X136360552Y-79943697D01*
X136221095Y-80280375D01*
X136150000Y-80637791D01*
X133100000Y-80637791D01*
X133100000Y-80567791D01*
X133028905Y-80210375D01*
X132889448Y-79873697D01*
X132686989Y-79570694D01*
X132429306Y-79313011D01*
X132126303Y-79110552D01*
X131789625Y-78971095D01*
X131432209Y-78900000D01*
X131067791Y-78900000D01*
X130710375Y-78971095D01*
X130373697Y-79110552D01*
X130070694Y-79313011D01*
X129813011Y-79570694D01*
X129610552Y-79873697D01*
X129471095Y-80210375D01*
X129400000Y-80567791D01*
X110600000Y-80567791D01*
X110528905Y-80210375D01*
X110389448Y-79873697D01*
X110186989Y-79570694D01*
X109929306Y-79313011D01*
X109626303Y-79110552D01*
X109289625Y-78971095D01*
X108932209Y-78900000D01*
X108567791Y-78900000D01*
X108210375Y-78971095D01*
X107873697Y-79110552D01*
X107570694Y-79313011D01*
X107313011Y-79570694D01*
X107110552Y-79873697D01*
X106971095Y-80210375D01*
X106900000Y-80567791D01*
X82975000Y-80567791D01*
X82975000Y-77376886D01*
X88000000Y-77376886D01*
X88000000Y-77623114D01*
X88048037Y-77864611D01*
X88142265Y-78092097D01*
X88279062Y-78296828D01*
X88453172Y-78470938D01*
X88657903Y-78607735D01*
X88885389Y-78701963D01*
X89126886Y-78750000D01*
X89373114Y-78750000D01*
X89614611Y-78701963D01*
X89842097Y-78607735D01*
X90046828Y-78470938D01*
X90220938Y-78296828D01*
X90357735Y-78092097D01*
X90451963Y-77864611D01*
X90500000Y-77623114D01*
X90500000Y-77376886D01*
X98750000Y-77376886D01*
X98750000Y-77623114D01*
X98798037Y-77864611D01*
X98892265Y-78092097D01*
X99029062Y-78296828D01*
X99203172Y-78470938D01*
X99407903Y-78607735D01*
X99635389Y-78701963D01*
X99876886Y-78750000D01*
X100123114Y-78750000D01*
X100364611Y-78701963D01*
X100592097Y-78607735D01*
X100796828Y-78470938D01*
X100970938Y-78296828D01*
X101107735Y-78092097D01*
X101201963Y-77864611D01*
X101250000Y-77623114D01*
X101250000Y-77376886D01*
X101201963Y-77135389D01*
X101107735Y-76907903D01*
X100970938Y-76703172D01*
X100796828Y-76529062D01*
X100592097Y-76392265D01*
X100364611Y-76298037D01*
X100123114Y-76250000D01*
X99876886Y-76250000D01*
X99635389Y-76298037D01*
X99407903Y-76392265D01*
X99203172Y-76529062D01*
X99029062Y-76703172D01*
X98892265Y-76907903D01*
X98798037Y-77135389D01*
X98750000Y-77376886D01*
X90500000Y-77376886D01*
X90451963Y-77135389D01*
X90357735Y-76907903D01*
X90220938Y-76703172D01*
X90046828Y-76529062D01*
X89842097Y-76392265D01*
X89614611Y-76298037D01*
X89373114Y-76250000D01*
X89126886Y-76250000D01*
X88885389Y-76298037D01*
X88657903Y-76392265D01*
X88453172Y-76529062D01*
X88279062Y-76703172D01*
X88142265Y-76907903D01*
X88048037Y-77135389D01*
X88000000Y-77376886D01*
X82975000Y-77376886D01*
X82975000Y-74772565D01*
X111700000Y-74772565D01*
X111700000Y-75107435D01*
X111765330Y-75435872D01*
X111893479Y-75745252D01*
X112079523Y-76023687D01*
X112316313Y-76260477D01*
X112594748Y-76446521D01*
X112904128Y-76574670D01*
X113232565Y-76640000D01*
X113567435Y-76640000D01*
X113895872Y-76574670D01*
X114205252Y-76446521D01*
X114483687Y-76260477D01*
X114720477Y-76023687D01*
X114906521Y-75745252D01*
X115034670Y-75435872D01*
X115100000Y-75107435D01*
X115100000Y-74772565D01*
X115034670Y-74444128D01*
X114906521Y-74134748D01*
X114720477Y-73856313D01*
X114483687Y-73619523D01*
X114205252Y-73433479D01*
X113895872Y-73305330D01*
X113567435Y-73240000D01*
X113232565Y-73240000D01*
X112904128Y-73305330D01*
X112594748Y-73433479D01*
X112316313Y-73619523D01*
X112079523Y-73856313D01*
X111893479Y-74134748D01*
X111765330Y-74444128D01*
X111700000Y-74772565D01*
X82975000Y-74772565D01*
X82975000Y-72376886D01*
X88000000Y-72376886D01*
X88000000Y-72623114D01*
X88048037Y-72864611D01*
X88142265Y-73092097D01*
X88279062Y-73296828D01*
X88453172Y-73470938D01*
X88657903Y-73607735D01*
X88885389Y-73701963D01*
X89126886Y-73750000D01*
X89373114Y-73750000D01*
X89614611Y-73701963D01*
X89842097Y-73607735D01*
X90046828Y-73470938D01*
X90220938Y-73296828D01*
X90357735Y-73092097D01*
X90451963Y-72864611D01*
X90500000Y-72623114D01*
X90500000Y-72376886D01*
X98750000Y-72376886D01*
X98750000Y-72623114D01*
X98798037Y-72864611D01*
X98892265Y-73092097D01*
X99029062Y-73296828D01*
X99203172Y-73470938D01*
X99407903Y-73607735D01*
X99635389Y-73701963D01*
X99876886Y-73750000D01*
X100123114Y-73750000D01*
X100364611Y-73701963D01*
X100592097Y-73607735D01*
X100796828Y-73470938D01*
X100970938Y-73296828D01*
X101107003Y-73093192D01*
X142227518Y-73093192D01*
X142302750Y-73294748D01*
X142519967Y-73410701D01*
X142755632Y-73482049D01*
X143000689Y-73506049D01*
X143245718Y-73481780D01*
X143481305Y-73410174D01*
X143697250Y-73294748D01*
X143772482Y-73093192D01*
X143000000Y-72320711D01*
X142227518Y-73093192D01*
X101107003Y-73093192D01*
X101107735Y-73092097D01*
X101201963Y-72864611D01*
X101250000Y-72623114D01*
X101250000Y-72376886D01*
X101224898Y-72250689D01*
X141743951Y-72250689D01*
X141768220Y-72495718D01*
X141839826Y-72731305D01*
X141955252Y-72947250D01*
X142156808Y-73022482D01*
X142929289Y-72250000D01*
X143070711Y-72250000D01*
X143843192Y-73022482D01*
X144044748Y-72947250D01*
X144160701Y-72730033D01*
X144232049Y-72494368D01*
X144256049Y-72249311D01*
X144231780Y-72004282D01*
X144181084Y-71837489D01*
X147850000Y-71837489D01*
X147850000Y-72162511D01*
X147913408Y-72481287D01*
X148037789Y-72781568D01*
X148218361Y-73051814D01*
X148448186Y-73281639D01*
X148718432Y-73462211D01*
X149018713Y-73586592D01*
X149337489Y-73650000D01*
X149662511Y-73650000D01*
X149981287Y-73586592D01*
X150281568Y-73462211D01*
X150551814Y-73281639D01*
X150633453Y-73200000D01*
X155347823Y-73200000D01*
X155356511Y-73288215D01*
X155382243Y-73373041D01*
X155424029Y-73451216D01*
X155480263Y-73519737D01*
X155548784Y-73575971D01*
X155626959Y-73617757D01*
X155711785Y-73643489D01*
X155800000Y-73652177D01*
X156837500Y-73650000D01*
X156950000Y-73537500D01*
X156950000Y-72050000D01*
X157050000Y-72050000D01*
X157050000Y-73537500D01*
X157162500Y-73650000D01*
X158200000Y-73652177D01*
X158288215Y-73643489D01*
X158373041Y-73617757D01*
X158451216Y-73575971D01*
X158519737Y-73519737D01*
X158575971Y-73451216D01*
X158617757Y-73373041D01*
X158643489Y-73288215D01*
X158652177Y-73200000D01*
X158650000Y-72162500D01*
X158537500Y-72050000D01*
X157050000Y-72050000D01*
X156950000Y-72050000D01*
X155462500Y-72050000D01*
X155350000Y-72162500D01*
X155347823Y-73200000D01*
X150633453Y-73200000D01*
X150781639Y-73051814D01*
X150962211Y-72781568D01*
X151086592Y-72481287D01*
X151150000Y-72162511D01*
X151150000Y-71837489D01*
X151086592Y-71518713D01*
X150962211Y-71218432D01*
X150781639Y-70948186D01*
X150633453Y-70800000D01*
X155347823Y-70800000D01*
X155350000Y-71837500D01*
X155462500Y-71950000D01*
X156950000Y-71950000D01*
X156950000Y-70462500D01*
X157050000Y-70462500D01*
X157050000Y-71950000D01*
X158537500Y-71950000D01*
X158650000Y-71837500D01*
X158652177Y-70800000D01*
X158643489Y-70711785D01*
X158617757Y-70626959D01*
X158575971Y-70548784D01*
X158519737Y-70480263D01*
X158451216Y-70424029D01*
X158373041Y-70382243D01*
X158288215Y-70356511D01*
X158200000Y-70347823D01*
X157162500Y-70350000D01*
X157050000Y-70462500D01*
X156950000Y-70462500D01*
X156837500Y-70350000D01*
X155800000Y-70347823D01*
X155711785Y-70356511D01*
X155626959Y-70382243D01*
X155548784Y-70424029D01*
X155480263Y-70480263D01*
X155424029Y-70548784D01*
X155382243Y-70626959D01*
X155356511Y-70711785D01*
X155347823Y-70800000D01*
X150633453Y-70800000D01*
X150551814Y-70718361D01*
X150281568Y-70537789D01*
X149981287Y-70413408D01*
X149662511Y-70350000D01*
X149337489Y-70350000D01*
X149018713Y-70413408D01*
X148718432Y-70537789D01*
X148448186Y-70718361D01*
X148218361Y-70948186D01*
X148037789Y-71218432D01*
X147913408Y-71518713D01*
X147850000Y-71837489D01*
X144181084Y-71837489D01*
X144160174Y-71768695D01*
X144044748Y-71552750D01*
X143843192Y-71477518D01*
X143070711Y-72250000D01*
X142929289Y-72250000D01*
X142156808Y-71477518D01*
X141955252Y-71552750D01*
X141839299Y-71769967D01*
X141767951Y-72005632D01*
X141743951Y-72250689D01*
X101224898Y-72250689D01*
X101201963Y-72135389D01*
X101107735Y-71907903D01*
X100970938Y-71703172D01*
X100796828Y-71529062D01*
X100613863Y-71406808D01*
X142227518Y-71406808D01*
X143000000Y-72179289D01*
X143772482Y-71406808D01*
X143697250Y-71205252D01*
X143480033Y-71089299D01*
X143244368Y-71017951D01*
X142999311Y-70993951D01*
X142754282Y-71018220D01*
X142518695Y-71089826D01*
X142302750Y-71205252D01*
X142227518Y-71406808D01*
X100613863Y-71406808D01*
X100592097Y-71392265D01*
X100364611Y-71298037D01*
X100123114Y-71250000D01*
X99876886Y-71250000D01*
X99635389Y-71298037D01*
X99407903Y-71392265D01*
X99203172Y-71529062D01*
X99029062Y-71703172D01*
X98892265Y-71907903D01*
X98798037Y-72135389D01*
X98750000Y-72376886D01*
X90500000Y-72376886D01*
X90451963Y-72135389D01*
X90357735Y-71907903D01*
X90220938Y-71703172D01*
X90046828Y-71529062D01*
X89842097Y-71392265D01*
X89614611Y-71298037D01*
X89373114Y-71250000D01*
X89126886Y-71250000D01*
X88885389Y-71298037D01*
X88657903Y-71392265D01*
X88453172Y-71529062D01*
X88279062Y-71703172D01*
X88142265Y-71907903D01*
X88048037Y-72135389D01*
X88000000Y-72376886D01*
X82975000Y-72376886D01*
X82975000Y-67126886D01*
X141750000Y-67126886D01*
X141750000Y-67373114D01*
X141798037Y-67614611D01*
X141892265Y-67842097D01*
X142029062Y-68046828D01*
X142203172Y-68220938D01*
X142407903Y-68357735D01*
X142635389Y-68451963D01*
X142876886Y-68500000D01*
X143123114Y-68500000D01*
X143364611Y-68451963D01*
X143592097Y-68357735D01*
X143796828Y-68220938D01*
X143970938Y-68046828D01*
X144107735Y-67842097D01*
X144201963Y-67614611D01*
X144250000Y-67373114D01*
X144250000Y-67126886D01*
X144201963Y-66885389D01*
X144107735Y-66657903D01*
X143970938Y-66453172D01*
X143796828Y-66279062D01*
X143592097Y-66142265D01*
X143364611Y-66048037D01*
X143123114Y-66000000D01*
X142876886Y-66000000D01*
X142635389Y-66048037D01*
X142407903Y-66142265D01*
X142203172Y-66279062D01*
X142029062Y-66453172D01*
X141892265Y-66657903D01*
X141798037Y-66885389D01*
X141750000Y-67126886D01*
X82975000Y-67126886D01*
X82975000Y-57900000D01*
X89750000Y-57900000D01*
X89779264Y-57897118D01*
X89807403Y-57888582D01*
X89833336Y-57874720D01*
X89856066Y-57856066D01*
X90356066Y-57356066D01*
X90374720Y-57333336D01*
X90388582Y-57307403D01*
X90397118Y-57279264D01*
X90400000Y-57250000D01*
X90400000Y-54350000D01*
X93647823Y-54350000D01*
X93647823Y-56150000D01*
X93656511Y-56238215D01*
X93682243Y-56323041D01*
X93724029Y-56401216D01*
X93780263Y-56469737D01*
X93848784Y-56525971D01*
X93926959Y-56567757D01*
X94011785Y-56593489D01*
X94100000Y-56602177D01*
X94400000Y-56602177D01*
X94400001Y-60218628D01*
X94378599Y-60240030D01*
X94291049Y-60371058D01*
X94230743Y-60516649D01*
X94200000Y-60671207D01*
X94200000Y-60828793D01*
X94230743Y-60983351D01*
X94291049Y-61128942D01*
X94378599Y-61259970D01*
X94490030Y-61371401D01*
X94621058Y-61458951D01*
X94766649Y-61519257D01*
X94921207Y-61550000D01*
X95078793Y-61550000D01*
X95233351Y-61519257D01*
X95378942Y-61458951D01*
X95509970Y-61371401D01*
X95621401Y-61259970D01*
X95708951Y-61128942D01*
X95769257Y-60983351D01*
X95800000Y-60828793D01*
X95800000Y-60671207D01*
X95769257Y-60516649D01*
X95708951Y-60371058D01*
X95621401Y-60240030D01*
X95600000Y-60218629D01*
X95600000Y-56602177D01*
X95900000Y-56602177D01*
X95988215Y-56593489D01*
X96073041Y-56567757D01*
X96100001Y-56553347D01*
X96100001Y-59420516D01*
X96097097Y-59450000D01*
X96108682Y-59567620D01*
X96125693Y-59623697D01*
X96142991Y-59680721D01*
X96198705Y-59784955D01*
X96273684Y-59876317D01*
X96296581Y-59895109D01*
X97200000Y-60798528D01*
X97200000Y-60828793D01*
X97230743Y-60983351D01*
X97291049Y-61128942D01*
X97378599Y-61259970D01*
X97490030Y-61371401D01*
X97621058Y-61458951D01*
X97766649Y-61519257D01*
X97921207Y-61550000D01*
X98078793Y-61550000D01*
X98233351Y-61519257D01*
X98378942Y-61458951D01*
X98509970Y-61371401D01*
X98621401Y-61259970D01*
X98708951Y-61128942D01*
X98769257Y-60983351D01*
X98800000Y-60828793D01*
X98800000Y-60671207D01*
X98769257Y-60516649D01*
X98708951Y-60371058D01*
X98621401Y-60240030D01*
X98509970Y-60128599D01*
X98378942Y-60041049D01*
X98233351Y-59980743D01*
X98078793Y-59950000D01*
X98048528Y-59950000D01*
X97300000Y-59201473D01*
X97300000Y-56033669D01*
X97351387Y-56110575D01*
X97539425Y-56298613D01*
X97760535Y-56446354D01*
X98006220Y-56548120D01*
X98267037Y-56600000D01*
X98532963Y-56600000D01*
X98793780Y-56548120D01*
X99039465Y-56446354D01*
X99260575Y-56298613D01*
X99448613Y-56110575D01*
X99596354Y-55889465D01*
X99698120Y-55643780D01*
X99750000Y-55382963D01*
X99750000Y-55117037D01*
X99698120Y-54856220D01*
X99596354Y-54610535D01*
X99448613Y-54389425D01*
X99260575Y-54201387D01*
X99039465Y-54053646D01*
X98793780Y-53951880D01*
X98532963Y-53900000D01*
X98267037Y-53900000D01*
X98006220Y-53951880D01*
X97760535Y-54053646D01*
X97539425Y-54201387D01*
X97351387Y-54389425D01*
X97300000Y-54466331D01*
X97300000Y-52762701D01*
X97339465Y-52746354D01*
X97560575Y-52598613D01*
X97748613Y-52410575D01*
X97896354Y-52189465D01*
X97998120Y-51943780D01*
X98050000Y-51682963D01*
X98050000Y-51550000D01*
X98140565Y-51550000D01*
X98178215Y-51932267D01*
X98289718Y-52299843D01*
X98470789Y-52638604D01*
X98714470Y-52935530D01*
X99011396Y-53179211D01*
X99350157Y-53360282D01*
X99717733Y-53471785D01*
X100004205Y-53500000D01*
X101288287Y-53500000D01*
X101688287Y-53900000D01*
X101667037Y-53900000D01*
X101406220Y-53951880D01*
X101160535Y-54053646D01*
X100939425Y-54201387D01*
X100751387Y-54389425D01*
X100603646Y-54610535D01*
X100501880Y-54856220D01*
X100450000Y-55117037D01*
X100450000Y-55382963D01*
X100501880Y-55643780D01*
X100603646Y-55889465D01*
X100751387Y-56110575D01*
X100939425Y-56298613D01*
X101160535Y-56446354D01*
X101406220Y-56548120D01*
X101667037Y-56600000D01*
X101932963Y-56600000D01*
X102193780Y-56548120D01*
X102439465Y-56446354D01*
X102660575Y-56298613D01*
X102848613Y-56110575D01*
X102996354Y-55889465D01*
X103098120Y-55643780D01*
X103150000Y-55382963D01*
X103150000Y-55361714D01*
X106800000Y-59011715D01*
X106800001Y-60525795D01*
X106828216Y-60812267D01*
X106939719Y-61179843D01*
X107120790Y-61518604D01*
X107364471Y-61815530D01*
X107661397Y-62059211D01*
X108000158Y-62240282D01*
X108367734Y-62351785D01*
X108750000Y-62389435D01*
X109132267Y-62351785D01*
X109499843Y-62240282D01*
X109838604Y-62059211D01*
X110135530Y-61815530D01*
X110379211Y-61518604D01*
X110560282Y-61179843D01*
X110671785Y-60812267D01*
X110700000Y-60525795D01*
X110700000Y-58299792D01*
X110709435Y-58203997D01*
X110671785Y-57821730D01*
X110560282Y-57454156D01*
X110560282Y-57454155D01*
X110379211Y-57115394D01*
X110135530Y-56818468D01*
X110061121Y-56757402D01*
X107653719Y-54350000D01*
X116147823Y-54350000D01*
X116147823Y-56150000D01*
X116156511Y-56238215D01*
X116182243Y-56323041D01*
X116224029Y-56401216D01*
X116280263Y-56469737D01*
X116348784Y-56525971D01*
X116426959Y-56567757D01*
X116511785Y-56593489D01*
X116600000Y-56602177D01*
X116900001Y-56602177D01*
X116900000Y-60218629D01*
X116878599Y-60240030D01*
X116791049Y-60371058D01*
X116730743Y-60516649D01*
X116700000Y-60671207D01*
X116700000Y-60828793D01*
X116730743Y-60983351D01*
X116791049Y-61128942D01*
X116878599Y-61259970D01*
X116990030Y-61371401D01*
X117121058Y-61458951D01*
X117266649Y-61519257D01*
X117421207Y-61550000D01*
X117578793Y-61550000D01*
X117733351Y-61519257D01*
X117878942Y-61458951D01*
X118009970Y-61371401D01*
X118121401Y-61259970D01*
X118208951Y-61128942D01*
X118269257Y-60983351D01*
X118300000Y-60828793D01*
X118300000Y-60671207D01*
X118269257Y-60516649D01*
X118208951Y-60371058D01*
X118121401Y-60240030D01*
X118100000Y-60218629D01*
X118100000Y-56602177D01*
X118400000Y-56602177D01*
X118488215Y-56593489D01*
X118573041Y-56567757D01*
X118600001Y-56553347D01*
X118600001Y-59420516D01*
X118597097Y-59450000D01*
X118608682Y-59567620D01*
X118625693Y-59623697D01*
X118642991Y-59680721D01*
X118698705Y-59784955D01*
X118773684Y-59876317D01*
X118796581Y-59895109D01*
X119700000Y-60798528D01*
X119700000Y-60828793D01*
X119730743Y-60983351D01*
X119791049Y-61128942D01*
X119878599Y-61259970D01*
X119990030Y-61371401D01*
X120121058Y-61458951D01*
X120266649Y-61519257D01*
X120421207Y-61550000D01*
X120578793Y-61550000D01*
X120733351Y-61519257D01*
X120878942Y-61458951D01*
X121009970Y-61371401D01*
X121121401Y-61259970D01*
X121208951Y-61128942D01*
X121269257Y-60983351D01*
X121300000Y-60828793D01*
X121300000Y-60671207D01*
X121269257Y-60516649D01*
X121208951Y-60371058D01*
X121121401Y-60240030D01*
X121009970Y-60128599D01*
X120878942Y-60041049D01*
X120733351Y-59980743D01*
X120578793Y-59950000D01*
X120548528Y-59950000D01*
X119800000Y-59201473D01*
X119800000Y-56033669D01*
X119851387Y-56110575D01*
X120039425Y-56298613D01*
X120260535Y-56446354D01*
X120506220Y-56548120D01*
X120767037Y-56600000D01*
X121032963Y-56600000D01*
X121293780Y-56548120D01*
X121539465Y-56446354D01*
X121760575Y-56298613D01*
X121948613Y-56110575D01*
X122096354Y-55889465D01*
X122198120Y-55643780D01*
X122250000Y-55382963D01*
X122250000Y-55117037D01*
X122198120Y-54856220D01*
X122096354Y-54610535D01*
X121948613Y-54389425D01*
X121760575Y-54201387D01*
X121539465Y-54053646D01*
X121293780Y-53951880D01*
X121032963Y-53900000D01*
X120767037Y-53900000D01*
X120506220Y-53951880D01*
X120260535Y-54053646D01*
X120039425Y-54201387D01*
X119851387Y-54389425D01*
X119800000Y-54466331D01*
X119800000Y-52762701D01*
X119839465Y-52746354D01*
X120060575Y-52598613D01*
X120248613Y-52410575D01*
X120396354Y-52189465D01*
X120498120Y-51943780D01*
X120550000Y-51682963D01*
X120550000Y-51550000D01*
X120640565Y-51550000D01*
X120678215Y-51932267D01*
X120789718Y-52299843D01*
X120970789Y-52638604D01*
X121214470Y-52935530D01*
X121511396Y-53179211D01*
X121850157Y-53360282D01*
X122217733Y-53471785D01*
X122504205Y-53500000D01*
X123788287Y-53500000D01*
X124188287Y-53900000D01*
X124167037Y-53900000D01*
X123906220Y-53951880D01*
X123660535Y-54053646D01*
X123439425Y-54201387D01*
X123251387Y-54389425D01*
X123103646Y-54610535D01*
X123001880Y-54856220D01*
X122950000Y-55117037D01*
X122950000Y-55382963D01*
X123001880Y-55643780D01*
X123103646Y-55889465D01*
X123251387Y-56110575D01*
X123439425Y-56298613D01*
X123660535Y-56446354D01*
X123906220Y-56548120D01*
X124167037Y-56600000D01*
X124432963Y-56600000D01*
X124693780Y-56548120D01*
X124939465Y-56446354D01*
X125160575Y-56298613D01*
X125348613Y-56110575D01*
X125496354Y-55889465D01*
X125598120Y-55643780D01*
X125650000Y-55382963D01*
X125650000Y-55361714D01*
X129300000Y-59011715D01*
X129300001Y-60525795D01*
X129328216Y-60812267D01*
X129439719Y-61179843D01*
X129620790Y-61518604D01*
X129864471Y-61815530D01*
X130161397Y-62059211D01*
X130500158Y-62240282D01*
X130867734Y-62351785D01*
X131250000Y-62389435D01*
X131632267Y-62351785D01*
X131999843Y-62240282D01*
X132338604Y-62059211D01*
X132635530Y-61815530D01*
X132879211Y-61518604D01*
X133060282Y-61179843D01*
X133171785Y-60812267D01*
X133200000Y-60525795D01*
X133200000Y-60317791D01*
X136150000Y-60317791D01*
X136150000Y-60682209D01*
X136221095Y-61039625D01*
X136360552Y-61376303D01*
X136563011Y-61679306D01*
X136820694Y-61936989D01*
X137123697Y-62139448D01*
X137460375Y-62278905D01*
X137817791Y-62350000D01*
X138182209Y-62350000D01*
X138539625Y-62278905D01*
X138876303Y-62139448D01*
X139179306Y-61936989D01*
X139436989Y-61679306D01*
X139639448Y-61376303D01*
X139778905Y-61039625D01*
X139850000Y-60682209D01*
X139850000Y-60317791D01*
X139778905Y-59960375D01*
X139639448Y-59623697D01*
X139436989Y-59320694D01*
X139179306Y-59063011D01*
X138876303Y-58860552D01*
X138539625Y-58721095D01*
X138182209Y-58650000D01*
X137817791Y-58650000D01*
X137460375Y-58721095D01*
X137123697Y-58860552D01*
X136820694Y-59063011D01*
X136563011Y-59320694D01*
X136360552Y-59623697D01*
X136221095Y-59960375D01*
X136150000Y-60317791D01*
X133200000Y-60317791D01*
X133200000Y-58299792D01*
X133209435Y-58203997D01*
X133171785Y-57821730D01*
X133060282Y-57454156D01*
X133060282Y-57454155D01*
X132885739Y-57127606D01*
X142943105Y-57127606D01*
X143066355Y-57370116D01*
X143351592Y-57525935D01*
X143661746Y-57623113D01*
X143984899Y-57657915D01*
X144308632Y-57629004D01*
X144620505Y-57537493D01*
X144908533Y-57386896D01*
X144933645Y-57370116D01*
X145056895Y-57127606D01*
X144000000Y-56070711D01*
X142943105Y-57127606D01*
X132885739Y-57127606D01*
X132879211Y-57115394D01*
X132635530Y-56818468D01*
X132561121Y-56757402D01*
X131788618Y-55984899D01*
X142342085Y-55984899D01*
X142370996Y-56308632D01*
X142462507Y-56620505D01*
X142613104Y-56908533D01*
X142629884Y-56933645D01*
X142872394Y-57056895D01*
X143929289Y-56000000D01*
X144070711Y-56000000D01*
X145127606Y-57056895D01*
X145370116Y-56933645D01*
X145525935Y-56648408D01*
X145623113Y-56338254D01*
X145657915Y-56015101D01*
X145629004Y-55691368D01*
X145537493Y-55379495D01*
X145386896Y-55091467D01*
X145370116Y-55066355D01*
X145127606Y-54943105D01*
X144070711Y-56000000D01*
X143929289Y-56000000D01*
X142872394Y-54943105D01*
X142629884Y-55066355D01*
X142474065Y-55351592D01*
X142376887Y-55661746D01*
X142342085Y-55984899D01*
X131788618Y-55984899D01*
X130676113Y-54872394D01*
X142943105Y-54872394D01*
X144000000Y-55929289D01*
X145056895Y-54872394D01*
X145020103Y-54800000D01*
X149847823Y-54800000D01*
X149847823Y-57200000D01*
X149856511Y-57288215D01*
X149882243Y-57373041D01*
X149924029Y-57451216D01*
X149980263Y-57519737D01*
X150048784Y-57575971D01*
X150126959Y-57617757D01*
X150211785Y-57643489D01*
X150300000Y-57652177D01*
X152700000Y-57652177D01*
X152788215Y-57643489D01*
X152873041Y-57617757D01*
X152951216Y-57575971D01*
X153019737Y-57519737D01*
X153075971Y-57451216D01*
X153117757Y-57373041D01*
X153143489Y-57288215D01*
X153152177Y-57200000D01*
X153152177Y-54800000D01*
X153143489Y-54711785D01*
X153117757Y-54626959D01*
X153075971Y-54548784D01*
X153019737Y-54480263D01*
X152951216Y-54424029D01*
X152873041Y-54382243D01*
X152788215Y-54356511D01*
X152700000Y-54347823D01*
X150300000Y-54347823D01*
X150211785Y-54356511D01*
X150126959Y-54382243D01*
X150048784Y-54424029D01*
X149980263Y-54480263D01*
X149924029Y-54548784D01*
X149882243Y-54626959D01*
X149856511Y-54711785D01*
X149847823Y-54800000D01*
X145020103Y-54800000D01*
X144933645Y-54629884D01*
X144648408Y-54474065D01*
X144338254Y-54376887D01*
X144015101Y-54342085D01*
X143691368Y-54370996D01*
X143379495Y-54462507D01*
X143091467Y-54613104D01*
X143066355Y-54629884D01*
X142943105Y-54872394D01*
X130676113Y-54872394D01*
X126042607Y-50238889D01*
X125981532Y-50164470D01*
X125684606Y-49920789D01*
X125345845Y-49739718D01*
X124978269Y-49628215D01*
X124691797Y-49600000D01*
X124596002Y-49590565D01*
X124500207Y-49600000D01*
X122504205Y-49600000D01*
X122217733Y-49628215D01*
X121850157Y-49739718D01*
X121511396Y-49920789D01*
X121214470Y-50164470D01*
X120970789Y-50461396D01*
X120789718Y-50800157D01*
X120678215Y-51167733D01*
X120640565Y-51550000D01*
X120550000Y-51550000D01*
X120550000Y-51417037D01*
X120498120Y-51156220D01*
X120396354Y-50910535D01*
X120248613Y-50689425D01*
X120060575Y-50501387D01*
X119839465Y-50353646D01*
X119593780Y-50251880D01*
X119332963Y-50200000D01*
X119067037Y-50200000D01*
X118806220Y-50251880D01*
X118560535Y-50353646D01*
X118339425Y-50501387D01*
X118151387Y-50689425D01*
X118003646Y-50910535D01*
X117901880Y-51156220D01*
X117850000Y-51417037D01*
X117850000Y-51682963D01*
X117901880Y-51943780D01*
X118003646Y-52189465D01*
X118151387Y-52410575D01*
X118339425Y-52598613D01*
X118560535Y-52746354D01*
X118600000Y-52762701D01*
X118600000Y-53946653D01*
X118573041Y-53932243D01*
X118488215Y-53906511D01*
X118400000Y-53897823D01*
X116600000Y-53897823D01*
X116511785Y-53906511D01*
X116426959Y-53932243D01*
X116348784Y-53974029D01*
X116280263Y-54030263D01*
X116224029Y-54098784D01*
X116182243Y-54176959D01*
X116156511Y-54261785D01*
X116147823Y-54350000D01*
X107653719Y-54350000D01*
X103542607Y-50238889D01*
X103481532Y-50164470D01*
X103184606Y-49920789D01*
X102845845Y-49739718D01*
X102478269Y-49628215D01*
X102191797Y-49600000D01*
X102096002Y-49590565D01*
X102000207Y-49600000D01*
X100004205Y-49600000D01*
X99717733Y-49628215D01*
X99350157Y-49739718D01*
X99011396Y-49920789D01*
X98714470Y-50164470D01*
X98470789Y-50461396D01*
X98289718Y-50800157D01*
X98178215Y-51167733D01*
X98140565Y-51550000D01*
X98050000Y-51550000D01*
X98050000Y-51417037D01*
X97998120Y-51156220D01*
X97896354Y-50910535D01*
X97748613Y-50689425D01*
X97560575Y-50501387D01*
X97339465Y-50353646D01*
X97093780Y-50251880D01*
X96832963Y-50200000D01*
X96567037Y-50200000D01*
X96306220Y-50251880D01*
X96060535Y-50353646D01*
X95839425Y-50501387D01*
X95651387Y-50689425D01*
X95503646Y-50910535D01*
X95401880Y-51156220D01*
X95350000Y-51417037D01*
X95350000Y-51682963D01*
X95401880Y-51943780D01*
X95503646Y-52189465D01*
X95651387Y-52410575D01*
X95839425Y-52598613D01*
X96060535Y-52746354D01*
X96100000Y-52762701D01*
X96100000Y-53946653D01*
X96073041Y-53932243D01*
X95988215Y-53906511D01*
X95900000Y-53897823D01*
X94100000Y-53897823D01*
X94011785Y-53906511D01*
X93926959Y-53932243D01*
X93848784Y-53974029D01*
X93780263Y-54030263D01*
X93724029Y-54098784D01*
X93682243Y-54176959D01*
X93656511Y-54261785D01*
X93647823Y-54350000D01*
X90400000Y-54350000D01*
X90400000Y-47975000D01*
X157100000Y-47975000D01*
X157100000Y-57250000D01*
G37*
X157100000Y-57250000D02*
X157102882Y-57279264D01*
X157111418Y-57307403D01*
X157125280Y-57333336D01*
X157143934Y-57356066D01*
X157643934Y-57856066D01*
X157666664Y-57874720D01*
X157692597Y-57888582D01*
X157720736Y-57897118D01*
X157750000Y-57900000D01*
X164525001Y-57900000D01*
X164525000Y-86541573D01*
X164318165Y-86232022D01*
X163767978Y-85681835D01*
X163121026Y-85249556D01*
X162402172Y-84951797D01*
X161639041Y-84800000D01*
X160860959Y-84800000D01*
X160097828Y-84951797D01*
X159378974Y-85249556D01*
X158732022Y-85681835D01*
X158181835Y-86232022D01*
X157749556Y-86878974D01*
X157451797Y-87597828D01*
X157300000Y-88360959D01*
X157300000Y-89139041D01*
X157451797Y-89902172D01*
X157749556Y-90621026D01*
X158181835Y-91267978D01*
X158732022Y-91818165D01*
X159041573Y-92025000D01*
X88458427Y-92025000D01*
X88767978Y-91818165D01*
X89318165Y-91267978D01*
X89750444Y-90621026D01*
X90048203Y-89902172D01*
X90200000Y-89139041D01*
X90200000Y-88485414D01*
X92335297Y-88485414D01*
X92434543Y-88707446D01*
X92685773Y-88843333D01*
X92958685Y-88927597D01*
X93242793Y-88956999D01*
X93527178Y-88930410D01*
X93800911Y-88848850D01*
X94053473Y-88715455D01*
X94065457Y-88707446D01*
X94164703Y-88485414D01*
X93250000Y-87570711D01*
X92335297Y-88485414D01*
X90200000Y-88485414D01*
X90200000Y-88360959D01*
X90048203Y-87597828D01*
X90004697Y-87492793D01*
X91793001Y-87492793D01*
X91819590Y-87777178D01*
X91901150Y-88050911D01*
X92034545Y-88303473D01*
X92042554Y-88315457D01*
X92264586Y-88414703D01*
X93179289Y-87500000D01*
X93320711Y-87500000D01*
X94235414Y-88414703D01*
X94457446Y-88315457D01*
X94593333Y-88064227D01*
X94677597Y-87791315D01*
X94706999Y-87507207D01*
X94692973Y-87357187D01*
X95300000Y-87357187D01*
X95300000Y-87642813D01*
X95355723Y-87922949D01*
X95465027Y-88186833D01*
X95623711Y-88424321D01*
X95825679Y-88626289D01*
X96063167Y-88784973D01*
X96327051Y-88894277D01*
X96607187Y-88950000D01*
X96892813Y-88950000D01*
X97172949Y-88894277D01*
X97436833Y-88784973D01*
X97674321Y-88626289D01*
X97876289Y-88424321D01*
X98034973Y-88186833D01*
X98144277Y-87922949D01*
X98200000Y-87642813D01*
X98200000Y-87357187D01*
X98800000Y-87357187D01*
X98800000Y-87642813D01*
X98855723Y-87922949D01*
X98965027Y-88186833D01*
X99123711Y-88424321D01*
X99325679Y-88626289D01*
X99563167Y-88784973D01*
X99827051Y-88894277D01*
X100107187Y-88950000D01*
X100392813Y-88950000D01*
X100672949Y-88894277D01*
X100936833Y-88784973D01*
X101174321Y-88626289D01*
X101376289Y-88424321D01*
X101534973Y-88186833D01*
X101644277Y-87922949D01*
X101700000Y-87642813D01*
X101700000Y-87357187D01*
X101692164Y-87317791D01*
X103080000Y-87317791D01*
X103080000Y-87682209D01*
X103151095Y-88039625D01*
X103290552Y-88376303D01*
X103493011Y-88679306D01*
X103750694Y-88936989D01*
X104053697Y-89139448D01*
X104390375Y-89278905D01*
X104747791Y-89350000D01*
X105112209Y-89350000D01*
X105469625Y-89278905D01*
X105806303Y-89139448D01*
X106109306Y-88936989D01*
X106366989Y-88679306D01*
X106569448Y-88376303D01*
X106708905Y-88039625D01*
X106780000Y-87682209D01*
X106780000Y-87317791D01*
X123400000Y-87317791D01*
X123400000Y-87682209D01*
X123471095Y-88039625D01*
X123610552Y-88376303D01*
X123813011Y-88679306D01*
X124070694Y-88936989D01*
X124373697Y-89139448D01*
X124710375Y-89278905D01*
X125067791Y-89350000D01*
X125432209Y-89350000D01*
X125789625Y-89278905D01*
X126126303Y-89139448D01*
X126429306Y-88936989D01*
X126686989Y-88679306D01*
X126889448Y-88376303D01*
X127028905Y-88039625D01*
X127100000Y-87682209D01*
X127100000Y-87317791D01*
X127028905Y-86960375D01*
X126889448Y-86623697D01*
X126686989Y-86320694D01*
X126429306Y-86063011D01*
X126126303Y-85860552D01*
X125789625Y-85721095D01*
X125432209Y-85650000D01*
X125067791Y-85650000D01*
X124710375Y-85721095D01*
X124373697Y-85860552D01*
X124070694Y-86063011D01*
X123813011Y-86320694D01*
X123610552Y-86623697D01*
X123471095Y-86960375D01*
X123400000Y-87317791D01*
X106780000Y-87317791D01*
X106708905Y-86960375D01*
X106569448Y-86623697D01*
X106366989Y-86320694D01*
X106109306Y-86063011D01*
X105806303Y-85860552D01*
X105469625Y-85721095D01*
X105112209Y-85650000D01*
X104747791Y-85650000D01*
X104390375Y-85721095D01*
X104053697Y-85860552D01*
X103750694Y-86063011D01*
X103493011Y-86320694D01*
X103290552Y-86623697D01*
X103151095Y-86960375D01*
X103080000Y-87317791D01*
X101692164Y-87317791D01*
X101644277Y-87077051D01*
X101534973Y-86813167D01*
X101376289Y-86575679D01*
X101174321Y-86373711D01*
X100936833Y-86215027D01*
X100672949Y-86105723D01*
X100392813Y-86050000D01*
X100107187Y-86050000D01*
X99827051Y-86105723D01*
X99563167Y-86215027D01*
X99325679Y-86373711D01*
X99123711Y-86575679D01*
X98965027Y-86813167D01*
X98855723Y-87077051D01*
X98800000Y-87357187D01*
X98200000Y-87357187D01*
X98144277Y-87077051D01*
X98034973Y-86813167D01*
X97876289Y-86575679D01*
X97674321Y-86373711D01*
X97436833Y-86215027D01*
X97172949Y-86105723D01*
X96892813Y-86050000D01*
X96607187Y-86050000D01*
X96327051Y-86105723D01*
X96063167Y-86215027D01*
X95825679Y-86373711D01*
X95623711Y-86575679D01*
X95465027Y-86813167D01*
X95355723Y-87077051D01*
X95300000Y-87357187D01*
X94692973Y-87357187D01*
X94680410Y-87222822D01*
X94598850Y-86949089D01*
X94465455Y-86696527D01*
X94457446Y-86684543D01*
X94235414Y-86585297D01*
X93320711Y-87500000D01*
X93179289Y-87500000D01*
X92264586Y-86585297D01*
X92042554Y-86684543D01*
X91906667Y-86935773D01*
X91822403Y-87208685D01*
X91793001Y-87492793D01*
X90004697Y-87492793D01*
X89750444Y-86878974D01*
X89506969Y-86514586D01*
X92335297Y-86514586D01*
X93250000Y-87429289D01*
X94164703Y-86514586D01*
X94065457Y-86292554D01*
X93814227Y-86156667D01*
X93541315Y-86072403D01*
X93257207Y-86043001D01*
X92972822Y-86069590D01*
X92699089Y-86151150D01*
X92446527Y-86284545D01*
X92434543Y-86292554D01*
X92335297Y-86514586D01*
X89506969Y-86514586D01*
X89318165Y-86232022D01*
X88767978Y-85681835D01*
X88121026Y-85249556D01*
X87402172Y-84951797D01*
X86639041Y-84800000D01*
X85860959Y-84800000D01*
X85097828Y-84951797D01*
X84378974Y-85249556D01*
X83732022Y-85681835D01*
X83181835Y-86232022D01*
X82975000Y-86541573D01*
X82975000Y-84777791D01*
X128400000Y-84777791D01*
X128400000Y-85142209D01*
X128471095Y-85499625D01*
X128610552Y-85836303D01*
X128813011Y-86139306D01*
X129070694Y-86396989D01*
X129373697Y-86599448D01*
X129470289Y-86639458D01*
X129449170Y-86671064D01*
X129317251Y-86989544D01*
X129250000Y-87327640D01*
X129250000Y-87672360D01*
X129317251Y-88010456D01*
X129449170Y-88328936D01*
X129470289Y-88360542D01*
X129373697Y-88400552D01*
X129070694Y-88603011D01*
X128813011Y-88860694D01*
X128610552Y-89163697D01*
X128471095Y-89500375D01*
X128400000Y-89857791D01*
X128400000Y-90222209D01*
X128471095Y-90579625D01*
X128610552Y-90916303D01*
X128813011Y-91219306D01*
X129070694Y-91476989D01*
X129373697Y-91679448D01*
X129710375Y-91818905D01*
X130067791Y-91890000D01*
X130432209Y-91890000D01*
X130789625Y-91818905D01*
X131126303Y-91679448D01*
X131429306Y-91476989D01*
X131596519Y-91309776D01*
X135550934Y-91309776D01*
X135698182Y-91572768D01*
X136017420Y-91748516D01*
X136364811Y-91858606D01*
X136727005Y-91898808D01*
X137090082Y-91867578D01*
X137440090Y-91766115D01*
X137763579Y-91598318D01*
X137801818Y-91572768D01*
X137949066Y-91309776D01*
X136750000Y-90110711D01*
X135550934Y-91309776D01*
X131596519Y-91309776D01*
X131686989Y-91219306D01*
X131889448Y-90916303D01*
X132028905Y-90579625D01*
X132100000Y-90222209D01*
X132100000Y-89857791D01*
X132028905Y-89500375D01*
X131889448Y-89163697D01*
X131817264Y-89055665D01*
X131828936Y-89050830D01*
X132115560Y-88859314D01*
X132359314Y-88615560D01*
X132550830Y-88328936D01*
X132682749Y-88010456D01*
X132750000Y-87672360D01*
X132750000Y-87480952D01*
X134241636Y-87480952D01*
X134271707Y-87824358D01*
X134368195Y-88155299D01*
X134527392Y-88461057D01*
X134548556Y-88492733D01*
X134801307Y-88627982D01*
X135929289Y-87500000D01*
X134801307Y-86372018D01*
X134548556Y-86507267D01*
X134382773Y-86809505D01*
X134279138Y-87138278D01*
X134241636Y-87480952D01*
X132750000Y-87480952D01*
X132750000Y-87327640D01*
X132682749Y-86989544D01*
X132550830Y-86671064D01*
X132359314Y-86384440D01*
X132276181Y-86301307D01*
X134872018Y-86301307D01*
X136000000Y-87429289D01*
X136014142Y-87415147D01*
X136084853Y-87485858D01*
X136070711Y-87500000D01*
X136084853Y-87514142D01*
X136014142Y-87584853D01*
X136000000Y-87570711D01*
X134872018Y-88698693D01*
X135007267Y-88951444D01*
X135184068Y-89048423D01*
X135041484Y-89307420D01*
X134931394Y-89654811D01*
X134891192Y-90017005D01*
X134922422Y-90380082D01*
X135023885Y-90730090D01*
X135191682Y-91053579D01*
X135217232Y-91091818D01*
X135480224Y-91239066D01*
X136679289Y-90040000D01*
X136820711Y-90040000D01*
X138019776Y-91239066D01*
X138282768Y-91091818D01*
X138458516Y-90772580D01*
X138568606Y-90425189D01*
X138608808Y-90062995D01*
X138577578Y-89699918D01*
X138476115Y-89349910D01*
X138308318Y-89026421D01*
X138282768Y-88988182D01*
X138019776Y-88840934D01*
X136820711Y-90040000D01*
X136679289Y-90040000D01*
X136665147Y-90025858D01*
X136735858Y-89955147D01*
X136750000Y-89969289D01*
X137949066Y-88770224D01*
X137801818Y-88507232D01*
X137526599Y-88355718D01*
X137617227Y-88190495D01*
X137720862Y-87861722D01*
X137758364Y-87519048D01*
X137728293Y-87175642D01*
X137631805Y-86844701D01*
X137526026Y-86641539D01*
X137763579Y-86518318D01*
X137801818Y-86492768D01*
X137949066Y-86229776D01*
X136750000Y-85030711D01*
X136735858Y-85044853D01*
X136665147Y-84974142D01*
X136679289Y-84960000D01*
X136820711Y-84960000D01*
X138019776Y-86159066D01*
X138282768Y-86011818D01*
X138458516Y-85692580D01*
X138568606Y-85345189D01*
X138608808Y-84982995D01*
X138591158Y-84777791D01*
X141400000Y-84777791D01*
X141400000Y-85142209D01*
X141471095Y-85499625D01*
X141610552Y-85836303D01*
X141813011Y-86139306D01*
X142070694Y-86396989D01*
X142373697Y-86599448D01*
X142470289Y-86639458D01*
X142449170Y-86671064D01*
X142317251Y-86989544D01*
X142250000Y-87327640D01*
X142250000Y-87672360D01*
X142317251Y-88010456D01*
X142449170Y-88328936D01*
X142470289Y-88360542D01*
X142373697Y-88400552D01*
X142070694Y-88603011D01*
X141813011Y-88860694D01*
X141610552Y-89163697D01*
X141471095Y-89500375D01*
X141400000Y-89857791D01*
X141400000Y-90222209D01*
X141471095Y-90579625D01*
X141610552Y-90916303D01*
X141813011Y-91219306D01*
X142070694Y-91476989D01*
X142373697Y-91679448D01*
X142710375Y-91818905D01*
X143067791Y-91890000D01*
X143432209Y-91890000D01*
X143789625Y-91818905D01*
X144126303Y-91679448D01*
X144429306Y-91476989D01*
X144596519Y-91309776D01*
X148300934Y-91309776D01*
X148448182Y-91572768D01*
X148767420Y-91748516D01*
X149114811Y-91858606D01*
X149477005Y-91898808D01*
X149840082Y-91867578D01*
X150190090Y-91766115D01*
X150513579Y-91598318D01*
X150551818Y-91572768D01*
X150699066Y-91309776D01*
X149500000Y-90110711D01*
X148300934Y-91309776D01*
X144596519Y-91309776D01*
X144686989Y-91219306D01*
X144889448Y-90916303D01*
X145028905Y-90579625D01*
X145100000Y-90222209D01*
X145100000Y-89857791D01*
X145028905Y-89500375D01*
X144889448Y-89163697D01*
X144817264Y-89055665D01*
X144828936Y-89050830D01*
X145115560Y-88859314D01*
X145359314Y-88615560D01*
X145550830Y-88328936D01*
X145682749Y-88010456D01*
X145750000Y-87672360D01*
X145750000Y-87480952D01*
X147241636Y-87480952D01*
X147271707Y-87824358D01*
X147368195Y-88155299D01*
X147527392Y-88461057D01*
X147548556Y-88492733D01*
X147801307Y-88627982D01*
X148929289Y-87500000D01*
X147801307Y-86372018D01*
X147548556Y-86507267D01*
X147382773Y-86809505D01*
X147279138Y-87138278D01*
X147241636Y-87480952D01*
X145750000Y-87480952D01*
X145750000Y-87327640D01*
X145682749Y-86989544D01*
X145550830Y-86671064D01*
X145359314Y-86384440D01*
X145115560Y-86140686D01*
X144828936Y-85949170D01*
X144817264Y-85944335D01*
X144889448Y-85836303D01*
X145028905Y-85499625D01*
X145100000Y-85142209D01*
X145100000Y-84937005D01*
X147641192Y-84937005D01*
X147672422Y-85300082D01*
X147773885Y-85650090D01*
X147941682Y-85973579D01*
X147967232Y-86011818D01*
X148018930Y-86040763D01*
X148007267Y-86048556D01*
X147872018Y-86301307D01*
X149000000Y-87429289D01*
X149014142Y-87415147D01*
X149084853Y-87485858D01*
X149070711Y-87500000D01*
X149084853Y-87514142D01*
X149014142Y-87584853D01*
X149000000Y-87570711D01*
X147872018Y-88698693D01*
X148007267Y-88951444D01*
X148020189Y-88958532D01*
X147967232Y-88988182D01*
X147791484Y-89307420D01*
X147681394Y-89654811D01*
X147641192Y-90017005D01*
X147672422Y-90380082D01*
X147773885Y-90730090D01*
X147941682Y-91053579D01*
X147967232Y-91091818D01*
X148230224Y-91239066D01*
X149429289Y-90040000D01*
X149570711Y-90040000D01*
X150769776Y-91239066D01*
X151032768Y-91091818D01*
X151208516Y-90772580D01*
X151318606Y-90425189D01*
X151358808Y-90062995D01*
X151327578Y-89699918D01*
X151226115Y-89349910D01*
X151058318Y-89026421D01*
X151032768Y-88988182D01*
X150769776Y-88840934D01*
X149570711Y-90040000D01*
X149429289Y-90040000D01*
X149415147Y-90025858D01*
X149485858Y-89955147D01*
X149500000Y-89969289D01*
X150699066Y-88770224D01*
X150551818Y-88507232D01*
X150468616Y-88461427D01*
X150617227Y-88190495D01*
X150720862Y-87861722D01*
X150758364Y-87519048D01*
X150741603Y-87327640D01*
X152250000Y-87327640D01*
X152250000Y-87672360D01*
X152317251Y-88010456D01*
X152449170Y-88328936D01*
X152640686Y-88615560D01*
X152884440Y-88859314D01*
X153171064Y-89050830D01*
X153182736Y-89055665D01*
X153110552Y-89163697D01*
X152971095Y-89500375D01*
X152900000Y-89857791D01*
X152900000Y-90222209D01*
X152971095Y-90579625D01*
X153110552Y-90916303D01*
X153313011Y-91219306D01*
X153570694Y-91476989D01*
X153873697Y-91679448D01*
X154210375Y-91818905D01*
X154567791Y-91890000D01*
X154932209Y-91890000D01*
X155289625Y-91818905D01*
X155626303Y-91679448D01*
X155929306Y-91476989D01*
X156186989Y-91219306D01*
X156389448Y-90916303D01*
X156528905Y-90579625D01*
X156600000Y-90222209D01*
X156600000Y-89857791D01*
X156528905Y-89500375D01*
X156389448Y-89163697D01*
X156186989Y-88860694D01*
X155929306Y-88603011D01*
X155626303Y-88400552D01*
X155529711Y-88360542D01*
X155550830Y-88328936D01*
X155682749Y-88010456D01*
X155750000Y-87672360D01*
X155750000Y-87327640D01*
X155682749Y-86989544D01*
X155550830Y-86671064D01*
X155529711Y-86639458D01*
X155626303Y-86599448D01*
X155929306Y-86396989D01*
X156186989Y-86139306D01*
X156389448Y-85836303D01*
X156528905Y-85499625D01*
X156600000Y-85142209D01*
X156600000Y-84777791D01*
X156528905Y-84420375D01*
X156389448Y-84083697D01*
X156186989Y-83780694D01*
X155929306Y-83523011D01*
X155626303Y-83320552D01*
X155289625Y-83181095D01*
X154932209Y-83110000D01*
X154567791Y-83110000D01*
X154210375Y-83181095D01*
X153873697Y-83320552D01*
X153570694Y-83523011D01*
X153313011Y-83780694D01*
X153110552Y-84083697D01*
X152971095Y-84420375D01*
X152900000Y-84777791D01*
X152900000Y-85142209D01*
X152971095Y-85499625D01*
X153110552Y-85836303D01*
X153182736Y-85944335D01*
X153171064Y-85949170D01*
X152884440Y-86140686D01*
X152640686Y-86384440D01*
X152449170Y-86671064D01*
X152317251Y-86989544D01*
X152250000Y-87327640D01*
X150741603Y-87327640D01*
X150728293Y-87175642D01*
X150631805Y-86844701D01*
X150472865Y-86539437D01*
X150513579Y-86518318D01*
X150551818Y-86492768D01*
X150699066Y-86229776D01*
X149500000Y-85030711D01*
X149485858Y-85044853D01*
X149415147Y-84974142D01*
X149429289Y-84960000D01*
X149570711Y-84960000D01*
X150769776Y-86159066D01*
X151032768Y-86011818D01*
X151208516Y-85692580D01*
X151318606Y-85345189D01*
X151358808Y-84982995D01*
X151327578Y-84619918D01*
X151226115Y-84269910D01*
X151058318Y-83946421D01*
X151032768Y-83908182D01*
X150769776Y-83760934D01*
X149570711Y-84960000D01*
X149429289Y-84960000D01*
X148230224Y-83760934D01*
X147967232Y-83908182D01*
X147791484Y-84227420D01*
X147681394Y-84574811D01*
X147641192Y-84937005D01*
X145100000Y-84937005D01*
X145100000Y-84777791D01*
X145028905Y-84420375D01*
X144889448Y-84083697D01*
X144686989Y-83780694D01*
X144596519Y-83690224D01*
X148300934Y-83690224D01*
X149500000Y-84889289D01*
X150699066Y-83690224D01*
X150551818Y-83427232D01*
X150232580Y-83251484D01*
X149885189Y-83141394D01*
X149522995Y-83101192D01*
X149159918Y-83132422D01*
X148809910Y-83233885D01*
X148486421Y-83401682D01*
X148448182Y-83427232D01*
X148300934Y-83690224D01*
X144596519Y-83690224D01*
X144429306Y-83523011D01*
X144126303Y-83320552D01*
X143789625Y-83181095D01*
X143432209Y-83110000D01*
X143067791Y-83110000D01*
X142710375Y-83181095D01*
X142373697Y-83320552D01*
X142070694Y-83523011D01*
X141813011Y-83780694D01*
X141610552Y-84083697D01*
X141471095Y-84420375D01*
X141400000Y-84777791D01*
X138591158Y-84777791D01*
X138577578Y-84619918D01*
X138476115Y-84269910D01*
X138308318Y-83946421D01*
X138282768Y-83908182D01*
X138019776Y-83760934D01*
X136820711Y-84960000D01*
X136679289Y-84960000D01*
X135480224Y-83760934D01*
X135217232Y-83908182D01*
X135041484Y-84227420D01*
X134931394Y-84574811D01*
X134891192Y-84937005D01*
X134922422Y-85300082D01*
X135023885Y-85650090D01*
X135181181Y-85953334D01*
X135038943Y-86027392D01*
X135007267Y-86048556D01*
X134872018Y-86301307D01*
X132276181Y-86301307D01*
X132115560Y-86140686D01*
X131828936Y-85949170D01*
X131817264Y-85944335D01*
X131889448Y-85836303D01*
X132028905Y-85499625D01*
X132100000Y-85142209D01*
X132100000Y-84777791D01*
X132028905Y-84420375D01*
X131889448Y-84083697D01*
X131686989Y-83780694D01*
X131596519Y-83690224D01*
X135550934Y-83690224D01*
X136750000Y-84889289D01*
X137949066Y-83690224D01*
X137801818Y-83427232D01*
X137482580Y-83251484D01*
X137135189Y-83141394D01*
X136772995Y-83101192D01*
X136409918Y-83132422D01*
X136059910Y-83233885D01*
X135736421Y-83401682D01*
X135698182Y-83427232D01*
X135550934Y-83690224D01*
X131596519Y-83690224D01*
X131429306Y-83523011D01*
X131126303Y-83320552D01*
X130789625Y-83181095D01*
X130432209Y-83110000D01*
X130067791Y-83110000D01*
X129710375Y-83181095D01*
X129373697Y-83320552D01*
X129070694Y-83523011D01*
X128813011Y-83780694D01*
X128610552Y-84083697D01*
X128471095Y-84420375D01*
X128400000Y-84777791D01*
X82975000Y-84777791D01*
X82975000Y-80567791D01*
X106900000Y-80567791D01*
X106900000Y-80932209D01*
X106971095Y-81289625D01*
X107110552Y-81626303D01*
X107313011Y-81929306D01*
X107570694Y-82186989D01*
X107873697Y-82389448D01*
X108210375Y-82528905D01*
X108567791Y-82600000D01*
X108932209Y-82600000D01*
X109289625Y-82528905D01*
X109618777Y-82392565D01*
X124400000Y-82392565D01*
X124400000Y-82727435D01*
X124465330Y-83055872D01*
X124593479Y-83365252D01*
X124779523Y-83643687D01*
X125016313Y-83880477D01*
X125294748Y-84066521D01*
X125604128Y-84194670D01*
X125932565Y-84260000D01*
X126267435Y-84260000D01*
X126595872Y-84194670D01*
X126905252Y-84066521D01*
X127183687Y-83880477D01*
X127420477Y-83643687D01*
X127606521Y-83365252D01*
X127734670Y-83055872D01*
X127800000Y-82727435D01*
X127800000Y-82392565D01*
X127734670Y-82064128D01*
X127606521Y-81754748D01*
X127420477Y-81476313D01*
X127183687Y-81239523D01*
X126905252Y-81053479D01*
X126595872Y-80925330D01*
X126267435Y-80860000D01*
X125932565Y-80860000D01*
X125604128Y-80925330D01*
X125294748Y-81053479D01*
X125016313Y-81239523D01*
X124779523Y-81476313D01*
X124593479Y-81754748D01*
X124465330Y-82064128D01*
X124400000Y-82392565D01*
X109618777Y-82392565D01*
X109626303Y-82389448D01*
X109929306Y-82186989D01*
X110186989Y-81929306D01*
X110389448Y-81626303D01*
X110528905Y-81289625D01*
X110600000Y-80932209D01*
X110600000Y-80567791D01*
X129400000Y-80567791D01*
X129400000Y-80932209D01*
X129471095Y-81289625D01*
X129610552Y-81626303D01*
X129813011Y-81929306D01*
X130070694Y-82186989D01*
X130373697Y-82389448D01*
X130710375Y-82528905D01*
X131067791Y-82600000D01*
X131432209Y-82600000D01*
X131789625Y-82528905D01*
X132126303Y-82389448D01*
X132429306Y-82186989D01*
X132686989Y-81929306D01*
X132889448Y-81626303D01*
X133028905Y-81289625D01*
X133100000Y-80932209D01*
X133100000Y-80637791D01*
X136150000Y-80637791D01*
X136150000Y-81002209D01*
X136221095Y-81359625D01*
X136360552Y-81696303D01*
X136563011Y-81999306D01*
X136820694Y-82256989D01*
X137123697Y-82459448D01*
X137460375Y-82598905D01*
X137817791Y-82670000D01*
X138182209Y-82670000D01*
X138539625Y-82598905D01*
X138876303Y-82459448D01*
X139179306Y-82256989D01*
X139436989Y-81999306D01*
X139639448Y-81696303D01*
X139778905Y-81359625D01*
X139850000Y-81002209D01*
X139850000Y-80637791D01*
X139778905Y-80280375D01*
X139639448Y-79943697D01*
X139436989Y-79640694D01*
X139179306Y-79383011D01*
X138876303Y-79180552D01*
X138539625Y-79041095D01*
X138182209Y-78970000D01*
X137817791Y-78970000D01*
X137460375Y-79041095D01*
X137123697Y-79180552D01*
X136820694Y-79383011D01*
X136563011Y-79640694D01*
X136360552Y-79943697D01*
X136221095Y-80280375D01*
X136150000Y-80637791D01*
X133100000Y-80637791D01*
X133100000Y-80567791D01*
X133028905Y-80210375D01*
X132889448Y-79873697D01*
X132686989Y-79570694D01*
X132429306Y-79313011D01*
X132126303Y-79110552D01*
X131789625Y-78971095D01*
X131432209Y-78900000D01*
X131067791Y-78900000D01*
X130710375Y-78971095D01*
X130373697Y-79110552D01*
X130070694Y-79313011D01*
X129813011Y-79570694D01*
X129610552Y-79873697D01*
X129471095Y-80210375D01*
X129400000Y-80567791D01*
X110600000Y-80567791D01*
X110528905Y-80210375D01*
X110389448Y-79873697D01*
X110186989Y-79570694D01*
X109929306Y-79313011D01*
X109626303Y-79110552D01*
X109289625Y-78971095D01*
X108932209Y-78900000D01*
X108567791Y-78900000D01*
X108210375Y-78971095D01*
X107873697Y-79110552D01*
X107570694Y-79313011D01*
X107313011Y-79570694D01*
X107110552Y-79873697D01*
X106971095Y-80210375D01*
X106900000Y-80567791D01*
X82975000Y-80567791D01*
X82975000Y-77376886D01*
X88000000Y-77376886D01*
X88000000Y-77623114D01*
X88048037Y-77864611D01*
X88142265Y-78092097D01*
X88279062Y-78296828D01*
X88453172Y-78470938D01*
X88657903Y-78607735D01*
X88885389Y-78701963D01*
X89126886Y-78750000D01*
X89373114Y-78750000D01*
X89614611Y-78701963D01*
X89842097Y-78607735D01*
X90046828Y-78470938D01*
X90220938Y-78296828D01*
X90357735Y-78092097D01*
X90451963Y-77864611D01*
X90500000Y-77623114D01*
X90500000Y-77376886D01*
X98750000Y-77376886D01*
X98750000Y-77623114D01*
X98798037Y-77864611D01*
X98892265Y-78092097D01*
X99029062Y-78296828D01*
X99203172Y-78470938D01*
X99407903Y-78607735D01*
X99635389Y-78701963D01*
X99876886Y-78750000D01*
X100123114Y-78750000D01*
X100364611Y-78701963D01*
X100592097Y-78607735D01*
X100796828Y-78470938D01*
X100970938Y-78296828D01*
X101107735Y-78092097D01*
X101201963Y-77864611D01*
X101250000Y-77623114D01*
X101250000Y-77376886D01*
X101201963Y-77135389D01*
X101107735Y-76907903D01*
X100970938Y-76703172D01*
X100796828Y-76529062D01*
X100592097Y-76392265D01*
X100364611Y-76298037D01*
X100123114Y-76250000D01*
X99876886Y-76250000D01*
X99635389Y-76298037D01*
X99407903Y-76392265D01*
X99203172Y-76529062D01*
X99029062Y-76703172D01*
X98892265Y-76907903D01*
X98798037Y-77135389D01*
X98750000Y-77376886D01*
X90500000Y-77376886D01*
X90451963Y-77135389D01*
X90357735Y-76907903D01*
X90220938Y-76703172D01*
X90046828Y-76529062D01*
X89842097Y-76392265D01*
X89614611Y-76298037D01*
X89373114Y-76250000D01*
X89126886Y-76250000D01*
X88885389Y-76298037D01*
X88657903Y-76392265D01*
X88453172Y-76529062D01*
X88279062Y-76703172D01*
X88142265Y-76907903D01*
X88048037Y-77135389D01*
X88000000Y-77376886D01*
X82975000Y-77376886D01*
X82975000Y-74772565D01*
X111700000Y-74772565D01*
X111700000Y-75107435D01*
X111765330Y-75435872D01*
X111893479Y-75745252D01*
X112079523Y-76023687D01*
X112316313Y-76260477D01*
X112594748Y-76446521D01*
X112904128Y-76574670D01*
X113232565Y-76640000D01*
X113567435Y-76640000D01*
X113895872Y-76574670D01*
X114205252Y-76446521D01*
X114483687Y-76260477D01*
X114720477Y-76023687D01*
X114906521Y-75745252D01*
X115034670Y-75435872D01*
X115100000Y-75107435D01*
X115100000Y-74772565D01*
X115034670Y-74444128D01*
X114906521Y-74134748D01*
X114720477Y-73856313D01*
X114483687Y-73619523D01*
X114205252Y-73433479D01*
X113895872Y-73305330D01*
X113567435Y-73240000D01*
X113232565Y-73240000D01*
X112904128Y-73305330D01*
X112594748Y-73433479D01*
X112316313Y-73619523D01*
X112079523Y-73856313D01*
X111893479Y-74134748D01*
X111765330Y-74444128D01*
X111700000Y-74772565D01*
X82975000Y-74772565D01*
X82975000Y-72376886D01*
X88000000Y-72376886D01*
X88000000Y-72623114D01*
X88048037Y-72864611D01*
X88142265Y-73092097D01*
X88279062Y-73296828D01*
X88453172Y-73470938D01*
X88657903Y-73607735D01*
X88885389Y-73701963D01*
X89126886Y-73750000D01*
X89373114Y-73750000D01*
X89614611Y-73701963D01*
X89842097Y-73607735D01*
X90046828Y-73470938D01*
X90220938Y-73296828D01*
X90357735Y-73092097D01*
X90451963Y-72864611D01*
X90500000Y-72623114D01*
X90500000Y-72376886D01*
X98750000Y-72376886D01*
X98750000Y-72623114D01*
X98798037Y-72864611D01*
X98892265Y-73092097D01*
X99029062Y-73296828D01*
X99203172Y-73470938D01*
X99407903Y-73607735D01*
X99635389Y-73701963D01*
X99876886Y-73750000D01*
X100123114Y-73750000D01*
X100364611Y-73701963D01*
X100592097Y-73607735D01*
X100796828Y-73470938D01*
X100970938Y-73296828D01*
X101107003Y-73093192D01*
X142227518Y-73093192D01*
X142302750Y-73294748D01*
X142519967Y-73410701D01*
X142755632Y-73482049D01*
X143000689Y-73506049D01*
X143245718Y-73481780D01*
X143481305Y-73410174D01*
X143697250Y-73294748D01*
X143772482Y-73093192D01*
X143000000Y-72320711D01*
X142227518Y-73093192D01*
X101107003Y-73093192D01*
X101107735Y-73092097D01*
X101201963Y-72864611D01*
X101250000Y-72623114D01*
X101250000Y-72376886D01*
X101224898Y-72250689D01*
X141743951Y-72250689D01*
X141768220Y-72495718D01*
X141839826Y-72731305D01*
X141955252Y-72947250D01*
X142156808Y-73022482D01*
X142929289Y-72250000D01*
X143070711Y-72250000D01*
X143843192Y-73022482D01*
X144044748Y-72947250D01*
X144160701Y-72730033D01*
X144232049Y-72494368D01*
X144256049Y-72249311D01*
X144231780Y-72004282D01*
X144181084Y-71837489D01*
X147850000Y-71837489D01*
X147850000Y-72162511D01*
X147913408Y-72481287D01*
X148037789Y-72781568D01*
X148218361Y-73051814D01*
X148448186Y-73281639D01*
X148718432Y-73462211D01*
X149018713Y-73586592D01*
X149337489Y-73650000D01*
X149662511Y-73650000D01*
X149981287Y-73586592D01*
X150281568Y-73462211D01*
X150551814Y-73281639D01*
X150633453Y-73200000D01*
X155347823Y-73200000D01*
X155356511Y-73288215D01*
X155382243Y-73373041D01*
X155424029Y-73451216D01*
X155480263Y-73519737D01*
X155548784Y-73575971D01*
X155626959Y-73617757D01*
X155711785Y-73643489D01*
X155800000Y-73652177D01*
X156837500Y-73650000D01*
X156950000Y-73537500D01*
X156950000Y-72050000D01*
X157050000Y-72050000D01*
X157050000Y-73537500D01*
X157162500Y-73650000D01*
X158200000Y-73652177D01*
X158288215Y-73643489D01*
X158373041Y-73617757D01*
X158451216Y-73575971D01*
X158519737Y-73519737D01*
X158575971Y-73451216D01*
X158617757Y-73373041D01*
X158643489Y-73288215D01*
X158652177Y-73200000D01*
X158650000Y-72162500D01*
X158537500Y-72050000D01*
X157050000Y-72050000D01*
X156950000Y-72050000D01*
X155462500Y-72050000D01*
X155350000Y-72162500D01*
X155347823Y-73200000D01*
X150633453Y-73200000D01*
X150781639Y-73051814D01*
X150962211Y-72781568D01*
X151086592Y-72481287D01*
X151150000Y-72162511D01*
X151150000Y-71837489D01*
X151086592Y-71518713D01*
X150962211Y-71218432D01*
X150781639Y-70948186D01*
X150633453Y-70800000D01*
X155347823Y-70800000D01*
X155350000Y-71837500D01*
X155462500Y-71950000D01*
X156950000Y-71950000D01*
X156950000Y-70462500D01*
X157050000Y-70462500D01*
X157050000Y-71950000D01*
X158537500Y-71950000D01*
X158650000Y-71837500D01*
X158652177Y-70800000D01*
X158643489Y-70711785D01*
X158617757Y-70626959D01*
X158575971Y-70548784D01*
X158519737Y-70480263D01*
X158451216Y-70424029D01*
X158373041Y-70382243D01*
X158288215Y-70356511D01*
X158200000Y-70347823D01*
X157162500Y-70350000D01*
X157050000Y-70462500D01*
X156950000Y-70462500D01*
X156837500Y-70350000D01*
X155800000Y-70347823D01*
X155711785Y-70356511D01*
X155626959Y-70382243D01*
X155548784Y-70424029D01*
X155480263Y-70480263D01*
X155424029Y-70548784D01*
X155382243Y-70626959D01*
X155356511Y-70711785D01*
X155347823Y-70800000D01*
X150633453Y-70800000D01*
X150551814Y-70718361D01*
X150281568Y-70537789D01*
X149981287Y-70413408D01*
X149662511Y-70350000D01*
X149337489Y-70350000D01*
X149018713Y-70413408D01*
X148718432Y-70537789D01*
X148448186Y-70718361D01*
X148218361Y-70948186D01*
X148037789Y-71218432D01*
X147913408Y-71518713D01*
X147850000Y-71837489D01*
X144181084Y-71837489D01*
X144160174Y-71768695D01*
X144044748Y-71552750D01*
X143843192Y-71477518D01*
X143070711Y-72250000D01*
X142929289Y-72250000D01*
X142156808Y-71477518D01*
X141955252Y-71552750D01*
X141839299Y-71769967D01*
X141767951Y-72005632D01*
X141743951Y-72250689D01*
X101224898Y-72250689D01*
X101201963Y-72135389D01*
X101107735Y-71907903D01*
X100970938Y-71703172D01*
X100796828Y-71529062D01*
X100613863Y-71406808D01*
X142227518Y-71406808D01*
X143000000Y-72179289D01*
X143772482Y-71406808D01*
X143697250Y-71205252D01*
X143480033Y-71089299D01*
X143244368Y-71017951D01*
X142999311Y-70993951D01*
X142754282Y-71018220D01*
X142518695Y-71089826D01*
X142302750Y-71205252D01*
X142227518Y-71406808D01*
X100613863Y-71406808D01*
X100592097Y-71392265D01*
X100364611Y-71298037D01*
X100123114Y-71250000D01*
X99876886Y-71250000D01*
X99635389Y-71298037D01*
X99407903Y-71392265D01*
X99203172Y-71529062D01*
X99029062Y-71703172D01*
X98892265Y-71907903D01*
X98798037Y-72135389D01*
X98750000Y-72376886D01*
X90500000Y-72376886D01*
X90451963Y-72135389D01*
X90357735Y-71907903D01*
X90220938Y-71703172D01*
X90046828Y-71529062D01*
X89842097Y-71392265D01*
X89614611Y-71298037D01*
X89373114Y-71250000D01*
X89126886Y-71250000D01*
X88885389Y-71298037D01*
X88657903Y-71392265D01*
X88453172Y-71529062D01*
X88279062Y-71703172D01*
X88142265Y-71907903D01*
X88048037Y-72135389D01*
X88000000Y-72376886D01*
X82975000Y-72376886D01*
X82975000Y-67126886D01*
X141750000Y-67126886D01*
X141750000Y-67373114D01*
X141798037Y-67614611D01*
X141892265Y-67842097D01*
X142029062Y-68046828D01*
X142203172Y-68220938D01*
X142407903Y-68357735D01*
X142635389Y-68451963D01*
X142876886Y-68500000D01*
X143123114Y-68500000D01*
X143364611Y-68451963D01*
X143592097Y-68357735D01*
X143796828Y-68220938D01*
X143970938Y-68046828D01*
X144107735Y-67842097D01*
X144201963Y-67614611D01*
X144250000Y-67373114D01*
X144250000Y-67126886D01*
X144201963Y-66885389D01*
X144107735Y-66657903D01*
X143970938Y-66453172D01*
X143796828Y-66279062D01*
X143592097Y-66142265D01*
X143364611Y-66048037D01*
X143123114Y-66000000D01*
X142876886Y-66000000D01*
X142635389Y-66048037D01*
X142407903Y-66142265D01*
X142203172Y-66279062D01*
X142029062Y-66453172D01*
X141892265Y-66657903D01*
X141798037Y-66885389D01*
X141750000Y-67126886D01*
X82975000Y-67126886D01*
X82975000Y-57900000D01*
X89750000Y-57900000D01*
X89779264Y-57897118D01*
X89807403Y-57888582D01*
X89833336Y-57874720D01*
X89856066Y-57856066D01*
X90356066Y-57356066D01*
X90374720Y-57333336D01*
X90388582Y-57307403D01*
X90397118Y-57279264D01*
X90400000Y-57250000D01*
X90400000Y-54350000D01*
X93647823Y-54350000D01*
X93647823Y-56150000D01*
X93656511Y-56238215D01*
X93682243Y-56323041D01*
X93724029Y-56401216D01*
X93780263Y-56469737D01*
X93848784Y-56525971D01*
X93926959Y-56567757D01*
X94011785Y-56593489D01*
X94100000Y-56602177D01*
X94400000Y-56602177D01*
X94400001Y-60218628D01*
X94378599Y-60240030D01*
X94291049Y-60371058D01*
X94230743Y-60516649D01*
X94200000Y-60671207D01*
X94200000Y-60828793D01*
X94230743Y-60983351D01*
X94291049Y-61128942D01*
X94378599Y-61259970D01*
X94490030Y-61371401D01*
X94621058Y-61458951D01*
X94766649Y-61519257D01*
X94921207Y-61550000D01*
X95078793Y-61550000D01*
X95233351Y-61519257D01*
X95378942Y-61458951D01*
X95509970Y-61371401D01*
X95621401Y-61259970D01*
X95708951Y-61128942D01*
X95769257Y-60983351D01*
X95800000Y-60828793D01*
X95800000Y-60671207D01*
X95769257Y-60516649D01*
X95708951Y-60371058D01*
X95621401Y-60240030D01*
X95600000Y-60218629D01*
X95600000Y-56602177D01*
X95900000Y-56602177D01*
X95988215Y-56593489D01*
X96073041Y-56567757D01*
X96100001Y-56553347D01*
X96100001Y-59420516D01*
X96097097Y-59450000D01*
X96108682Y-59567620D01*
X96125693Y-59623697D01*
X96142991Y-59680721D01*
X96198705Y-59784955D01*
X96273684Y-59876317D01*
X96296581Y-59895109D01*
X97200000Y-60798528D01*
X97200000Y-60828793D01*
X97230743Y-60983351D01*
X97291049Y-61128942D01*
X97378599Y-61259970D01*
X97490030Y-61371401D01*
X97621058Y-61458951D01*
X97766649Y-61519257D01*
X97921207Y-61550000D01*
X98078793Y-61550000D01*
X98233351Y-61519257D01*
X98378942Y-61458951D01*
X98509970Y-61371401D01*
X98621401Y-61259970D01*
X98708951Y-61128942D01*
X98769257Y-60983351D01*
X98800000Y-60828793D01*
X98800000Y-60671207D01*
X98769257Y-60516649D01*
X98708951Y-60371058D01*
X98621401Y-60240030D01*
X98509970Y-60128599D01*
X98378942Y-60041049D01*
X98233351Y-59980743D01*
X98078793Y-59950000D01*
X98048528Y-59950000D01*
X97300000Y-59201473D01*
X97300000Y-56033669D01*
X97351387Y-56110575D01*
X97539425Y-56298613D01*
X97760535Y-56446354D01*
X98006220Y-56548120D01*
X98267037Y-56600000D01*
X98532963Y-56600000D01*
X98793780Y-56548120D01*
X99039465Y-56446354D01*
X99260575Y-56298613D01*
X99448613Y-56110575D01*
X99596354Y-55889465D01*
X99698120Y-55643780D01*
X99750000Y-55382963D01*
X99750000Y-55117037D01*
X99698120Y-54856220D01*
X99596354Y-54610535D01*
X99448613Y-54389425D01*
X99260575Y-54201387D01*
X99039465Y-54053646D01*
X98793780Y-53951880D01*
X98532963Y-53900000D01*
X98267037Y-53900000D01*
X98006220Y-53951880D01*
X97760535Y-54053646D01*
X97539425Y-54201387D01*
X97351387Y-54389425D01*
X97300000Y-54466331D01*
X97300000Y-52762701D01*
X97339465Y-52746354D01*
X97560575Y-52598613D01*
X97748613Y-52410575D01*
X97896354Y-52189465D01*
X97998120Y-51943780D01*
X98050000Y-51682963D01*
X98050000Y-51550000D01*
X98140565Y-51550000D01*
X98178215Y-51932267D01*
X98289718Y-52299843D01*
X98470789Y-52638604D01*
X98714470Y-52935530D01*
X99011396Y-53179211D01*
X99350157Y-53360282D01*
X99717733Y-53471785D01*
X100004205Y-53500000D01*
X101288287Y-53500000D01*
X101688287Y-53900000D01*
X101667037Y-53900000D01*
X101406220Y-53951880D01*
X101160535Y-54053646D01*
X100939425Y-54201387D01*
X100751387Y-54389425D01*
X100603646Y-54610535D01*
X100501880Y-54856220D01*
X100450000Y-55117037D01*
X100450000Y-55382963D01*
X100501880Y-55643780D01*
X100603646Y-55889465D01*
X100751387Y-56110575D01*
X100939425Y-56298613D01*
X101160535Y-56446354D01*
X101406220Y-56548120D01*
X101667037Y-56600000D01*
X101932963Y-56600000D01*
X102193780Y-56548120D01*
X102439465Y-56446354D01*
X102660575Y-56298613D01*
X102848613Y-56110575D01*
X102996354Y-55889465D01*
X103098120Y-55643780D01*
X103150000Y-55382963D01*
X103150000Y-55361714D01*
X106800000Y-59011715D01*
X106800001Y-60525795D01*
X106828216Y-60812267D01*
X106939719Y-61179843D01*
X107120790Y-61518604D01*
X107364471Y-61815530D01*
X107661397Y-62059211D01*
X108000158Y-62240282D01*
X108367734Y-62351785D01*
X108750000Y-62389435D01*
X109132267Y-62351785D01*
X109499843Y-62240282D01*
X109838604Y-62059211D01*
X110135530Y-61815530D01*
X110379211Y-61518604D01*
X110560282Y-61179843D01*
X110671785Y-60812267D01*
X110700000Y-60525795D01*
X110700000Y-58299792D01*
X110709435Y-58203997D01*
X110671785Y-57821730D01*
X110560282Y-57454156D01*
X110560282Y-57454155D01*
X110379211Y-57115394D01*
X110135530Y-56818468D01*
X110061121Y-56757402D01*
X107653719Y-54350000D01*
X116147823Y-54350000D01*
X116147823Y-56150000D01*
X116156511Y-56238215D01*
X116182243Y-56323041D01*
X116224029Y-56401216D01*
X116280263Y-56469737D01*
X116348784Y-56525971D01*
X116426959Y-56567757D01*
X116511785Y-56593489D01*
X116600000Y-56602177D01*
X116900001Y-56602177D01*
X116900000Y-60218629D01*
X116878599Y-60240030D01*
X116791049Y-60371058D01*
X116730743Y-60516649D01*
X116700000Y-60671207D01*
X116700000Y-60828793D01*
X116730743Y-60983351D01*
X116791049Y-61128942D01*
X116878599Y-61259970D01*
X116990030Y-61371401D01*
X117121058Y-61458951D01*
X117266649Y-61519257D01*
X117421207Y-61550000D01*
X117578793Y-61550000D01*
X117733351Y-61519257D01*
X117878942Y-61458951D01*
X118009970Y-61371401D01*
X118121401Y-61259970D01*
X118208951Y-61128942D01*
X118269257Y-60983351D01*
X118300000Y-60828793D01*
X118300000Y-60671207D01*
X118269257Y-60516649D01*
X118208951Y-60371058D01*
X118121401Y-60240030D01*
X118100000Y-60218629D01*
X118100000Y-56602177D01*
X118400000Y-56602177D01*
X118488215Y-56593489D01*
X118573041Y-56567757D01*
X118600001Y-56553347D01*
X118600001Y-59420516D01*
X118597097Y-59450000D01*
X118608682Y-59567620D01*
X118625693Y-59623697D01*
X118642991Y-59680721D01*
X118698705Y-59784955D01*
X118773684Y-59876317D01*
X118796581Y-59895109D01*
X119700000Y-60798528D01*
X119700000Y-60828793D01*
X119730743Y-60983351D01*
X119791049Y-61128942D01*
X119878599Y-61259970D01*
X119990030Y-61371401D01*
X120121058Y-61458951D01*
X120266649Y-61519257D01*
X120421207Y-61550000D01*
X120578793Y-61550000D01*
X120733351Y-61519257D01*
X120878942Y-61458951D01*
X121009970Y-61371401D01*
X121121401Y-61259970D01*
X121208951Y-61128942D01*
X121269257Y-60983351D01*
X121300000Y-60828793D01*
X121300000Y-60671207D01*
X121269257Y-60516649D01*
X121208951Y-60371058D01*
X121121401Y-60240030D01*
X121009970Y-60128599D01*
X120878942Y-60041049D01*
X120733351Y-59980743D01*
X120578793Y-59950000D01*
X120548528Y-59950000D01*
X119800000Y-59201473D01*
X119800000Y-56033669D01*
X119851387Y-56110575D01*
X120039425Y-56298613D01*
X120260535Y-56446354D01*
X120506220Y-56548120D01*
X120767037Y-56600000D01*
X121032963Y-56600000D01*
X121293780Y-56548120D01*
X121539465Y-56446354D01*
X121760575Y-56298613D01*
X121948613Y-56110575D01*
X122096354Y-55889465D01*
X122198120Y-55643780D01*
X122250000Y-55382963D01*
X122250000Y-55117037D01*
X122198120Y-54856220D01*
X122096354Y-54610535D01*
X121948613Y-54389425D01*
X121760575Y-54201387D01*
X121539465Y-54053646D01*
X121293780Y-53951880D01*
X121032963Y-53900000D01*
X120767037Y-53900000D01*
X120506220Y-53951880D01*
X120260535Y-54053646D01*
X120039425Y-54201387D01*
X119851387Y-54389425D01*
X119800000Y-54466331D01*
X119800000Y-52762701D01*
X119839465Y-52746354D01*
X120060575Y-52598613D01*
X120248613Y-52410575D01*
X120396354Y-52189465D01*
X120498120Y-51943780D01*
X120550000Y-51682963D01*
X120550000Y-51550000D01*
X120640565Y-51550000D01*
X120678215Y-51932267D01*
X120789718Y-52299843D01*
X120970789Y-52638604D01*
X121214470Y-52935530D01*
X121511396Y-53179211D01*
X121850157Y-53360282D01*
X122217733Y-53471785D01*
X122504205Y-53500000D01*
X123788287Y-53500000D01*
X124188287Y-53900000D01*
X124167037Y-53900000D01*
X123906220Y-53951880D01*
X123660535Y-54053646D01*
X123439425Y-54201387D01*
X123251387Y-54389425D01*
X123103646Y-54610535D01*
X123001880Y-54856220D01*
X122950000Y-55117037D01*
X122950000Y-55382963D01*
X123001880Y-55643780D01*
X123103646Y-55889465D01*
X123251387Y-56110575D01*
X123439425Y-56298613D01*
X123660535Y-56446354D01*
X123906220Y-56548120D01*
X124167037Y-56600000D01*
X124432963Y-56600000D01*
X124693780Y-56548120D01*
X124939465Y-56446354D01*
X125160575Y-56298613D01*
X125348613Y-56110575D01*
X125496354Y-55889465D01*
X125598120Y-55643780D01*
X125650000Y-55382963D01*
X125650000Y-55361714D01*
X129300000Y-59011715D01*
X129300001Y-60525795D01*
X129328216Y-60812267D01*
X129439719Y-61179843D01*
X129620790Y-61518604D01*
X129864471Y-61815530D01*
X130161397Y-62059211D01*
X130500158Y-62240282D01*
X130867734Y-62351785D01*
X131250000Y-62389435D01*
X131632267Y-62351785D01*
X131999843Y-62240282D01*
X132338604Y-62059211D01*
X132635530Y-61815530D01*
X132879211Y-61518604D01*
X133060282Y-61179843D01*
X133171785Y-60812267D01*
X133200000Y-60525795D01*
X133200000Y-60317791D01*
X136150000Y-60317791D01*
X136150000Y-60682209D01*
X136221095Y-61039625D01*
X136360552Y-61376303D01*
X136563011Y-61679306D01*
X136820694Y-61936989D01*
X137123697Y-62139448D01*
X137460375Y-62278905D01*
X137817791Y-62350000D01*
X138182209Y-62350000D01*
X138539625Y-62278905D01*
X138876303Y-62139448D01*
X139179306Y-61936989D01*
X139436989Y-61679306D01*
X139639448Y-61376303D01*
X139778905Y-61039625D01*
X139850000Y-60682209D01*
X139850000Y-60317791D01*
X139778905Y-59960375D01*
X139639448Y-59623697D01*
X139436989Y-59320694D01*
X139179306Y-59063011D01*
X138876303Y-58860552D01*
X138539625Y-58721095D01*
X138182209Y-58650000D01*
X137817791Y-58650000D01*
X137460375Y-58721095D01*
X137123697Y-58860552D01*
X136820694Y-59063011D01*
X136563011Y-59320694D01*
X136360552Y-59623697D01*
X136221095Y-59960375D01*
X136150000Y-60317791D01*
X133200000Y-60317791D01*
X133200000Y-58299792D01*
X133209435Y-58203997D01*
X133171785Y-57821730D01*
X133060282Y-57454156D01*
X133060282Y-57454155D01*
X132885739Y-57127606D01*
X142943105Y-57127606D01*
X143066355Y-57370116D01*
X143351592Y-57525935D01*
X143661746Y-57623113D01*
X143984899Y-57657915D01*
X144308632Y-57629004D01*
X144620505Y-57537493D01*
X144908533Y-57386896D01*
X144933645Y-57370116D01*
X145056895Y-57127606D01*
X144000000Y-56070711D01*
X142943105Y-57127606D01*
X132885739Y-57127606D01*
X132879211Y-57115394D01*
X132635530Y-56818468D01*
X132561121Y-56757402D01*
X131788618Y-55984899D01*
X142342085Y-55984899D01*
X142370996Y-56308632D01*
X142462507Y-56620505D01*
X142613104Y-56908533D01*
X142629884Y-56933645D01*
X142872394Y-57056895D01*
X143929289Y-56000000D01*
X144070711Y-56000000D01*
X145127606Y-57056895D01*
X145370116Y-56933645D01*
X145525935Y-56648408D01*
X145623113Y-56338254D01*
X145657915Y-56015101D01*
X145629004Y-55691368D01*
X145537493Y-55379495D01*
X145386896Y-55091467D01*
X145370116Y-55066355D01*
X145127606Y-54943105D01*
X144070711Y-56000000D01*
X143929289Y-56000000D01*
X142872394Y-54943105D01*
X142629884Y-55066355D01*
X142474065Y-55351592D01*
X142376887Y-55661746D01*
X142342085Y-55984899D01*
X131788618Y-55984899D01*
X130676113Y-54872394D01*
X142943105Y-54872394D01*
X144000000Y-55929289D01*
X145056895Y-54872394D01*
X145020103Y-54800000D01*
X149847823Y-54800000D01*
X149847823Y-57200000D01*
X149856511Y-57288215D01*
X149882243Y-57373041D01*
X149924029Y-57451216D01*
X149980263Y-57519737D01*
X150048784Y-57575971D01*
X150126959Y-57617757D01*
X150211785Y-57643489D01*
X150300000Y-57652177D01*
X152700000Y-57652177D01*
X152788215Y-57643489D01*
X152873041Y-57617757D01*
X152951216Y-57575971D01*
X153019737Y-57519737D01*
X153075971Y-57451216D01*
X153117757Y-57373041D01*
X153143489Y-57288215D01*
X153152177Y-57200000D01*
X153152177Y-54800000D01*
X153143489Y-54711785D01*
X153117757Y-54626959D01*
X153075971Y-54548784D01*
X153019737Y-54480263D01*
X152951216Y-54424029D01*
X152873041Y-54382243D01*
X152788215Y-54356511D01*
X152700000Y-54347823D01*
X150300000Y-54347823D01*
X150211785Y-54356511D01*
X150126959Y-54382243D01*
X150048784Y-54424029D01*
X149980263Y-54480263D01*
X149924029Y-54548784D01*
X149882243Y-54626959D01*
X149856511Y-54711785D01*
X149847823Y-54800000D01*
X145020103Y-54800000D01*
X144933645Y-54629884D01*
X144648408Y-54474065D01*
X144338254Y-54376887D01*
X144015101Y-54342085D01*
X143691368Y-54370996D01*
X143379495Y-54462507D01*
X143091467Y-54613104D01*
X143066355Y-54629884D01*
X142943105Y-54872394D01*
X130676113Y-54872394D01*
X126042607Y-50238889D01*
X125981532Y-50164470D01*
X125684606Y-49920789D01*
X125345845Y-49739718D01*
X124978269Y-49628215D01*
X124691797Y-49600000D01*
X124596002Y-49590565D01*
X124500207Y-49600000D01*
X122504205Y-49600000D01*
X122217733Y-49628215D01*
X121850157Y-49739718D01*
X121511396Y-49920789D01*
X121214470Y-50164470D01*
X120970789Y-50461396D01*
X120789718Y-50800157D01*
X120678215Y-51167733D01*
X120640565Y-51550000D01*
X120550000Y-51550000D01*
X120550000Y-51417037D01*
X120498120Y-51156220D01*
X120396354Y-50910535D01*
X120248613Y-50689425D01*
X120060575Y-50501387D01*
X119839465Y-50353646D01*
X119593780Y-50251880D01*
X119332963Y-50200000D01*
X119067037Y-50200000D01*
X118806220Y-50251880D01*
X118560535Y-50353646D01*
X118339425Y-50501387D01*
X118151387Y-50689425D01*
X118003646Y-50910535D01*
X117901880Y-51156220D01*
X117850000Y-51417037D01*
X117850000Y-51682963D01*
X117901880Y-51943780D01*
X118003646Y-52189465D01*
X118151387Y-52410575D01*
X118339425Y-52598613D01*
X118560535Y-52746354D01*
X118600000Y-52762701D01*
X118600000Y-53946653D01*
X118573041Y-53932243D01*
X118488215Y-53906511D01*
X118400000Y-53897823D01*
X116600000Y-53897823D01*
X116511785Y-53906511D01*
X116426959Y-53932243D01*
X116348784Y-53974029D01*
X116280263Y-54030263D01*
X116224029Y-54098784D01*
X116182243Y-54176959D01*
X116156511Y-54261785D01*
X116147823Y-54350000D01*
X107653719Y-54350000D01*
X103542607Y-50238889D01*
X103481532Y-50164470D01*
X103184606Y-49920789D01*
X102845845Y-49739718D01*
X102478269Y-49628215D01*
X102191797Y-49600000D01*
X102096002Y-49590565D01*
X102000207Y-49600000D01*
X100004205Y-49600000D01*
X99717733Y-49628215D01*
X99350157Y-49739718D01*
X99011396Y-49920789D01*
X98714470Y-50164470D01*
X98470789Y-50461396D01*
X98289718Y-50800157D01*
X98178215Y-51167733D01*
X98140565Y-51550000D01*
X98050000Y-51550000D01*
X98050000Y-51417037D01*
X97998120Y-51156220D01*
X97896354Y-50910535D01*
X97748613Y-50689425D01*
X97560575Y-50501387D01*
X97339465Y-50353646D01*
X97093780Y-50251880D01*
X96832963Y-50200000D01*
X96567037Y-50200000D01*
X96306220Y-50251880D01*
X96060535Y-50353646D01*
X95839425Y-50501387D01*
X95651387Y-50689425D01*
X95503646Y-50910535D01*
X95401880Y-51156220D01*
X95350000Y-51417037D01*
X95350000Y-51682963D01*
X95401880Y-51943780D01*
X95503646Y-52189465D01*
X95651387Y-52410575D01*
X95839425Y-52598613D01*
X96060535Y-52746354D01*
X96100000Y-52762701D01*
X96100000Y-53946653D01*
X96073041Y-53932243D01*
X95988215Y-53906511D01*
X95900000Y-53897823D01*
X94100000Y-53897823D01*
X94011785Y-53906511D01*
X93926959Y-53932243D01*
X93848784Y-53974029D01*
X93780263Y-54030263D01*
X93724029Y-54098784D01*
X93682243Y-54176959D01*
X93656511Y-54261785D01*
X93647823Y-54350000D01*
X90400000Y-54350000D01*
X90400000Y-47975000D01*
X157100000Y-47975000D01*
X157100000Y-57250000D01*
%TD*%
M02*
