M48
; DRILL file {KiCad (5.1.6-0)} date Friday, May 05, 2023 at 07:20:03 PM
; FORMAT={-:-/ absolute / inch / decimal}
; #@! TF.CreationDate,2023-05-05T19:20:03-07:00
; #@! TF.GenerationSoftware,Kicad,Pcbnew,(5.1.6-0)
; #@! TF.FileFunction,Plated,1,2,PTH
FMAT,2
INCH
T1C0.0118
T2C0.0157
T3C0.0197
T4C0.0315
T5C0.0394
T6C0.0433
T7C0.0472
T8C0.0512
T9C0.0551
T10C0.1378
%
G90
G05
T1
X3.313Y-2.369
X3.313Y-2.5265
X3.313Y-2.684
X3.313Y-2.8414
X3.313Y-2.9989
X3.313Y-3.1564
X3.313Y-3.3139
X3.3918Y-2.313
X3.3918Y-2.4477
X3.3918Y-2.6052
X3.3918Y-2.7627
X3.3918Y-2.9202
X3.3918Y-3.0777
X3.3918Y-3.2351
X3.4705Y-2.369
X3.4705Y-2.5265
X3.4705Y-2.684
X3.4705Y-3.1564
X3.4705Y-3.3139
X3.5099Y-2.9595
X3.5493Y-2.4477
X3.5493Y-2.7627
X3.5493Y-3.2351
X3.5728Y-2.313
X3.5886Y-1.9359
X3.5886Y-2.6446
X3.5886Y-3.117
X3.5886Y-3.3532
X3.5886Y-3.5107
X3.628Y-2.054
X3.628Y-2.2115
X3.628Y-2.369
X3.628Y-2.9202
X3.6674Y-2.7233
X3.6674Y-3.1958
X3.6674Y-3.5895
X3.7008Y-2.3917
X3.7067Y-1.9753
X3.7067Y-2.2903
X3.7067Y-2.9989
X3.7067Y-3.3139
X3.7402Y-2.3917
X3.7855Y-2.9202
X3.7855Y-3.117
X3.7855Y-3.5501
X3.8249Y-1.9359
X3.8249Y-2.6446
X3.8249Y-2.8021
X3.8249Y-3.2351
X3.8583Y-2.3917
X3.8642Y-2.9989
X3.8976Y-2.3917
X3.9036Y-2.7233
X3.9036Y-3.1564
X3.9036Y-3.3139
X3.9036Y-3.5895
X3.9823Y-2.9595
X3.9823Y-3.2351
X4.0217Y-2.684
X4.0217Y-2.8414
X4.0217Y-3.0777
X4.0611Y-2.4084
X4.0611Y-3.5895
X4.1004Y-2.7627
X4.1004Y-2.9202
X4.1398Y-3.0383
X4.1792Y-2.5658
X4.1792Y-2.8414
X4.2186Y-2.684
X4.2186Y-2.9595
X4.2186Y-3.5895
X4.2579Y-2.4871
X4.2579Y-3.432
X4.2973Y-2.7627
X4.3367Y-2.5658
X4.3367Y-2.8808
X4.3367Y-3.3532
X4.3367Y-3.5107
X4.376Y-2.4477
X4.376Y-2.684
X4.4154Y-2.8021
X4.4154Y-3.2745
X4.4154Y-3.432
X4.4154Y-3.5895
X4.4548Y-2.369
X4.4941Y-2.7233
X4.4941Y-3.1958
X4.4941Y-3.3532
X4.4941Y-3.5107
X4.5729Y-2.8021
X4.5729Y-3.2745
X4.5729Y-3.432
X4.5729Y-3.5895
X4.5866Y-2.3917
X4.6123Y-2.684
X4.626Y-2.3917
X4.6516Y-2.8808
X4.6516Y-3.1958
X4.6516Y-3.3532
X4.6516Y-3.5107
X4.691Y-2.7627
X4.7304Y-2.6446
X4.7304Y-3.2745
X4.7304Y-3.432
X4.7304Y-3.5895
X4.7441Y-2.3917
X4.7697Y-2.8414
X4.7835Y-2.3917
X4.8091Y-2.7233
X4.8091Y-3.1958
X4.8485Y-2.9202
X4.8878Y-2.6446
X4.8878Y-2.8021
X4.8878Y-3.5895
X4.9272Y-2.4084
X4.9666Y-2.7233
X4.9666Y-2.8808
X5.006Y-2.6052
X5.0453Y-2.8021
X5.0847Y-2.5265
X5.0847Y-2.684
X5.0847Y-2.9202
X5.1634Y-2.6052
X5.1634Y-2.7627
X5.2028Y-2.4871
X5.2028Y-2.8808
X5.2422Y-2.684
X5.2422Y-2.9989
X5.2815Y-2.369
X5.2815Y-2.5658
X5.2815Y-2.8021
X5.2815Y-3.3139
X5.2815Y-3.5501
X5.3209Y-2.9202
X5.3603Y-2.4871
X5.3603Y-2.6446
X5.3603Y-3.0383
X5.3997Y-2.7627
X5.439Y-2.8808
X5.4784Y-2.5265
X5.4784Y-2.9989
X5.4784Y-3.432
X5.5178Y-2.7233
X5.5571Y-2.8414
X5.5965Y-2.5658
X5.5965Y-2.9595
X5.7146Y-2.684
X5.7146Y-2.8414
X5.754Y-2.2903
X5.8327Y-2.369
X5.8327Y-3.1958
X5.9115Y-1.9359
X5.9115Y-2.4477
X5.9115Y-3.117
X5.9902Y-2.0147
X5.9902Y-2.5265
X5.9902Y-3.0383
X6.0296Y-2.6446
X6.0296Y-2.8021
X6.0689Y-1.9359
X6.0689Y-2.0934
X6.0689Y-2.9202
X6.1083Y-2.7233
X6.1477Y-2.0147
X6.1477Y-2.1721
X6.2264Y-3.3139
X6.3052Y-2.3296
X6.3052Y-3.2351
X6.3839Y-3.1564
X6.4173Y-2.4213
X6.4233Y-2.3031
X6.4233Y-3.2745
T2
X3.56Y-2.565
X4.3012Y-2.126
X4.4459Y-2.565
X5.1772Y-2.126
T3
X6.2451Y-2.1161
X6.2753Y-2.0431
X6.2753Y-2.1892
X6.3484Y-2.0128
X6.3484Y-2.2195
X6.4215Y-2.0431
X6.4215Y-2.1892
X6.4518Y-2.1161
X3.2923Y-2.1161
X3.3226Y-2.0431
X3.3226Y-2.1892
X3.3957Y-2.0128
X3.3957Y-2.2195
X3.4687Y-2.0431
X3.4687Y-2.1892
X3.499Y-2.1161
X3.2923Y-3.4941
X3.3226Y-3.421
X3.3226Y-3.5672
X3.3957Y-3.3907
X3.3957Y-3.5974
X3.4687Y-3.421
X3.4687Y-3.5672
X3.499Y-3.4941
X6.2451Y-3.4941
X6.2753Y-3.421
X6.2753Y-3.5672
X6.3484Y-3.3907
X6.3484Y-3.5974
X6.4215Y-3.421
X6.4215Y-3.5672
X6.4518Y-3.4941
T4
X5.6299Y-2.6476
X5.6299Y-2.8445
X3.5138Y-2.8543
X3.5138Y-3.0512
X3.937Y-2.8543
X3.937Y-3.0512
T5
X3.6713Y-3.4449
X3.8091Y-3.4449
X3.9469Y-3.4449
T6
X3.7402Y-2.1752
X3.8071Y-2.0295
X3.874Y-2.1752
X3.9409Y-2.0295
X4.0079Y-2.1752
X4.626Y-2.1752
X4.6929Y-2.0295
X4.7598Y-2.1752
X4.8268Y-2.0295
X4.8937Y-2.1752
T7
X5.6693Y-2.2047
X5.9646Y-2.2047
X4.4646Y-2.9504
X4.9646Y-3.2504
X5.8858Y-2.8346
X6.1811Y-2.8346
T8
X5.6693Y-3.4449
X5.8661Y-3.4449
X6.063Y-3.4449
X5.1575Y-3.4449
X5.3543Y-3.4449
T9
X5.8858Y-3.3449
X5.8858Y-3.5449
X6.0925Y-3.3449
X6.0925Y-3.5449
X5.3839Y-3.3449
X5.3839Y-3.5449
X4.1311Y-3.4449
X4.9311Y-3.4449
X5.1673Y-2.3791
X5.1673Y-3.1791
X5.4331Y-2.3819
X5.4331Y-3.1819
X5.128Y-3.3449
X5.128Y-3.5449
X5.6398Y-3.3449
X5.6398Y-3.5449
X4.2815Y-2.3791
X4.2815Y-3.1791
T10
X3.3957Y-2.1161
X3.3957Y-3.4941
X6.3484Y-3.4941
X6.3484Y-2.1161
T0
M30
