%TF.GenerationSoftware,KiCad,Pcbnew,(5.1.6-0)*%
%TF.CreationDate,2023-05-06T17:20:51-07:00*%
%TF.ProjectId,LM1875x2_SMD_1206,4c4d3138-3735-4783-925f-534d445f3132,rev?*%
%TF.SameCoordinates,Original*%
%TF.FileFunction,Legend,Bot*%
%TF.FilePolarity,Positive*%
%FSLAX46Y46*%
G04 Gerber Fmt 4.6, Leading zero omitted, Abs format (unit mm)*
G04 Created by KiCad (PCBNEW (5.1.6-0)) date 2023-05-06 17:20:51*
%MOMM*%
%LPD*%
G01*
G04 APERTURE LIST*
%ADD10C,0.150000*%
G04 APERTURE END LIST*
D10*
X141321428Y-53952380D02*
X141654761Y-53476190D01*
X141892857Y-53952380D02*
X141892857Y-52952380D01*
X141511904Y-52952380D01*
X141416666Y-53000000D01*
X141369047Y-53047619D01*
X141321428Y-53142857D01*
X141321428Y-53285714D01*
X141369047Y-53380952D01*
X141416666Y-53428571D01*
X141511904Y-53476190D01*
X141892857Y-53476190D01*
X140511904Y-53904761D02*
X140607142Y-53952380D01*
X140797619Y-53952380D01*
X140892857Y-53904761D01*
X140940476Y-53809523D01*
X140940476Y-53428571D01*
X140892857Y-53333333D01*
X140797619Y-53285714D01*
X140607142Y-53285714D01*
X140511904Y-53333333D01*
X140464285Y-53428571D01*
X140464285Y-53523809D01*
X140940476Y-53619047D01*
X140130952Y-53285714D02*
X139892857Y-53952380D01*
X139654761Y-53285714D01*
X137988095Y-53952380D02*
X138559523Y-53952380D01*
X138273809Y-53952380D02*
X138273809Y-52952380D01*
X138369047Y-53095238D01*
X138464285Y-53190476D01*
X138559523Y-53238095D01*
X137559523Y-53857142D02*
X137511904Y-53904761D01*
X137559523Y-53952380D01*
X137607142Y-53904761D01*
X137559523Y-53857142D01*
X137559523Y-53952380D01*
X136892857Y-52952380D02*
X136797619Y-52952380D01*
X136702380Y-53000000D01*
X136654761Y-53047619D01*
X136607142Y-53142857D01*
X136559523Y-53333333D01*
X136559523Y-53571428D01*
X136607142Y-53761904D01*
X136654761Y-53857142D01*
X136702380Y-53904761D01*
X136797619Y-53952380D01*
X136892857Y-53952380D01*
X136988095Y-53904761D01*
X137035714Y-53857142D01*
X137083333Y-53761904D01*
X137130952Y-53571428D01*
X137130952Y-53333333D01*
X137083333Y-53142857D01*
X137035714Y-53047619D01*
X136988095Y-53000000D01*
X136892857Y-52952380D01*
X141952380Y-52202380D02*
X141952380Y-51202380D01*
X141619047Y-51916666D01*
X141285714Y-51202380D01*
X141285714Y-52202380D01*
X140380952Y-52202380D02*
X140380952Y-51678571D01*
X140428571Y-51583333D01*
X140523809Y-51535714D01*
X140714285Y-51535714D01*
X140809523Y-51583333D01*
X140380952Y-52154761D02*
X140476190Y-52202380D01*
X140714285Y-52202380D01*
X140809523Y-52154761D01*
X140857142Y-52059523D01*
X140857142Y-51964285D01*
X140809523Y-51869047D01*
X140714285Y-51821428D01*
X140476190Y-51821428D01*
X140380952Y-51773809D01*
X140000000Y-51535714D02*
X139761904Y-52202380D01*
X139523809Y-51535714D02*
X139761904Y-52202380D01*
X139857142Y-52440476D01*
X139904761Y-52488095D01*
X140000000Y-52535714D01*
X138428571Y-51297619D02*
X138380952Y-51250000D01*
X138285714Y-51202380D01*
X138047619Y-51202380D01*
X137952380Y-51250000D01*
X137904761Y-51297619D01*
X137857142Y-51392857D01*
X137857142Y-51488095D01*
X137904761Y-51630952D01*
X138476190Y-52202380D01*
X137857142Y-52202380D01*
X137238095Y-51202380D02*
X137142857Y-51202380D01*
X137047619Y-51250000D01*
X137000000Y-51297619D01*
X136952380Y-51392857D01*
X136904761Y-51583333D01*
X136904761Y-51821428D01*
X136952380Y-52011904D01*
X137000000Y-52107142D01*
X137047619Y-52154761D01*
X137142857Y-52202380D01*
X137238095Y-52202380D01*
X137333333Y-52154761D01*
X137380952Y-52107142D01*
X137428571Y-52011904D01*
X137476190Y-51821428D01*
X137476190Y-51583333D01*
X137428571Y-51392857D01*
X137380952Y-51297619D01*
X137333333Y-51250000D01*
X137238095Y-51202380D01*
X136523809Y-51297619D02*
X136476190Y-51250000D01*
X136380952Y-51202380D01*
X136142857Y-51202380D01*
X136047619Y-51250000D01*
X136000000Y-51297619D01*
X135952380Y-51392857D01*
X135952380Y-51488095D01*
X136000000Y-51630952D01*
X136571428Y-52202380D01*
X135952380Y-52202380D01*
X135619047Y-51202380D02*
X135000000Y-51202380D01*
X135333333Y-51583333D01*
X135190476Y-51583333D01*
X135095238Y-51630952D01*
X135047619Y-51678571D01*
X135000000Y-51773809D01*
X135000000Y-52011904D01*
X135047619Y-52107142D01*
X135095238Y-52154761D01*
X135190476Y-52202380D01*
X135476190Y-52202380D01*
X135571428Y-52154761D01*
X135619047Y-52107142D01*
M02*
